<mxfile host="app.diagrams.net" agent="Mozilla/5.0 (Windows NT 10.0; Win64; x64) AppleWebKit/537.36 (KHTML, like Gecko) Chrome/140.0.0.0 Safari/537.36" version="28.2.3" pages="2">
  <diagram name="Standalone" id="VBy1NLk5XnznT_duUD1z">
    <mxGraphModel dx="1426" dy="863" grid="1" gridSize="10" guides="1" tooltips="1" connect="1" arrows="1" fold="1" page="1" pageScale="1" pageWidth="827" pageHeight="1169" math="0" shadow="0">
      <root>
        <mxCell id="0" />
        <mxCell id="1" parent="0" />
        <mxCell id="ghqr43D6T2IHy0TQdt4e-19" value="ABS" style="html=1;outlineConnect=0;whiteSpace=wrap;fillColor=#99ffff;shape=mxgraph.archimate3.application;appType=comp;archiType=square;fontFamily=Poppins;fontSource=https%3A%2F%2Ffonts.googleapis.com%2Fcss%3Ffamily%3DPoppins;verticalAlign=top;" vertex="1" parent="1">
          <mxGeometry x="810" y="440" width="160" height="180" as="geometry" />
        </mxCell>
        <mxCell id="HGRYmRGOkshQXvAgNZ_G-27" value="Porduct Portal" style="html=1;outlineConnect=0;whiteSpace=wrap;shape=mxgraph.archimate3.application;appType=grouping;archiType=square;dashed=1;fillColor=#cdeb8b;verticalAlign=top;fontFamily=Poppins;fontSource=https%3A%2F%2Ffonts.googleapis.com%2Fcss%3Ffamily%3DPoppins;strokeColor=#36393d;opacity=60;" parent="1" vertex="1">
          <mxGeometry x="110" y="330" width="150" height="400" as="geometry" />
        </mxCell>
        <mxCell id="HGRYmRGOkshQXvAgNZ_G-6" value="" style="group" parent="1" vertex="1" connectable="0">
          <mxGeometry x="320" y="330" width="266" height="100" as="geometry" />
        </mxCell>
        <mxCell id="HGRYmRGOkshQXvAgNZ_G-1" value="Components Library" style="html=1;outlineConnect=0;whiteSpace=wrap;fillColor=#99ffff;shape=mxgraph.archimate3.application;appType=comp;archiType=square;fontFamily=Poppins;fontSource=https%3A%2F%2Ffonts.googleapis.com%2Fcss%3Ffamily%3DPoppins;verticalAlign=top;" parent="HGRYmRGOkshQXvAgNZ_G-6" vertex="1">
          <mxGeometry width="266" height="100" as="geometry" />
        </mxCell>
        <mxCell id="HGRYmRGOkshQXvAgNZ_G-4" style="edgeStyle=orthogonalEdgeStyle;rounded=0;orthogonalLoop=1;jettySize=auto;html=1;" parent="HGRYmRGOkshQXvAgNZ_G-6" source="HGRYmRGOkshQXvAgNZ_G-2" target="HGRYmRGOkshQXvAgNZ_G-3" edge="1">
          <mxGeometry relative="1" as="geometry" />
        </mxCell>
        <mxCell id="HGRYmRGOkshQXvAgNZ_G-2" value="Components&lt;div&gt;Service&lt;/div&gt;" style="html=1;outlineConnect=0;whiteSpace=wrap;fillColor=#99ffff;shape=mxgraph.archimate3.application;appType=serv;archiType=rounded;fontFamily=Poppins;fontSource=https%3A%2F%2Ffonts.googleapis.com%2Fcss%3Ffamily%3DPoppins;" parent="HGRYmRGOkshQXvAgNZ_G-6" vertex="1">
          <mxGeometry x="16" y="30" width="120" height="60" as="geometry" />
        </mxCell>
        <mxCell id="HGRYmRGOkshQXvAgNZ_G-3" value="&lt;div style=&quot;line-height: 160%;&quot;&gt;Components&lt;/div&gt;" style="html=1;outlineConnect=0;whiteSpace=wrap;fillColor=#99ffff;shape=mxgraph.archimate3.businessObject;overflow=fill;fontFamily=Poppins;fontSource=https%3A%2F%2Ffonts.googleapis.com%2Fcss%3Ffamily%3DPoppins;fontSize=10;spacingTop=0;verticalAlign=top;spacing=0;spacingLeft=0;" parent="HGRYmRGOkshQXvAgNZ_G-6" vertex="1">
          <mxGeometry x="166" y="40" width="83" height="40" as="geometry" />
        </mxCell>
        <mxCell id="HGRYmRGOkshQXvAgNZ_G-7" value="" style="group" parent="1" vertex="1" connectable="0">
          <mxGeometry x="320" y="480" width="266" height="100" as="geometry" />
        </mxCell>
        <mxCell id="HGRYmRGOkshQXvAgNZ_G-8" value="Building Blocks" style="html=1;outlineConnect=0;whiteSpace=wrap;fillColor=#99ffff;shape=mxgraph.archimate3.application;appType=comp;archiType=square;fontFamily=Poppins;fontSource=https%3A%2F%2Ffonts.googleapis.com%2Fcss%3Ffamily%3DPoppins;verticalAlign=top;" parent="HGRYmRGOkshQXvAgNZ_G-7" vertex="1">
          <mxGeometry width="266" height="100" as="geometry" />
        </mxCell>
        <mxCell id="HGRYmRGOkshQXvAgNZ_G-9" style="edgeStyle=orthogonalEdgeStyle;rounded=0;orthogonalLoop=1;jettySize=auto;html=1;" parent="HGRYmRGOkshQXvAgNZ_G-7" source="HGRYmRGOkshQXvAgNZ_G-10" target="HGRYmRGOkshQXvAgNZ_G-11" edge="1">
          <mxGeometry relative="1" as="geometry" />
        </mxCell>
        <mxCell id="HGRYmRGOkshQXvAgNZ_G-10" value="Building Blocks&lt;br&gt;Service" style="html=1;outlineConnect=0;whiteSpace=wrap;fillColor=#99ffff;shape=mxgraph.archimate3.application;appType=serv;archiType=rounded;fontFamily=Poppins;fontSource=https%3A%2F%2Ffonts.googleapis.com%2Fcss%3Ffamily%3DPoppins;" parent="HGRYmRGOkshQXvAgNZ_G-7" vertex="1">
          <mxGeometry x="16" y="30" width="120" height="60" as="geometry" />
        </mxCell>
        <mxCell id="HGRYmRGOkshQXvAgNZ_G-11" value="&lt;div style=&quot;line-height: 160%;&quot;&gt;Building&lt;br&gt;Blocks&lt;/div&gt;" style="html=1;outlineConnect=0;whiteSpace=wrap;fillColor=#99ffff;shape=mxgraph.archimate3.businessObject;overflow=fill;fontFamily=Poppins;fontSource=https%3A%2F%2Ffonts.googleapis.com%2Fcss%3Ffamily%3DPoppins;fontSize=10;spacingTop=0;verticalAlign=top;spacing=0;spacingLeft=0;" parent="HGRYmRGOkshQXvAgNZ_G-7" vertex="1">
          <mxGeometry x="166" y="40" width="83" height="40" as="geometry" />
        </mxCell>
        <mxCell id="HGRYmRGOkshQXvAgNZ_G-12" value="" style="group" parent="1" vertex="1" connectable="0">
          <mxGeometry x="320" y="630" width="266" height="100" as="geometry" />
        </mxCell>
        <mxCell id="HGRYmRGOkshQXvAgNZ_G-13" value="Product Configurator" style="html=1;outlineConnect=0;whiteSpace=wrap;fillColor=#99ffff;shape=mxgraph.archimate3.application;appType=comp;archiType=square;fontFamily=Poppins;fontSource=https%3A%2F%2Ffonts.googleapis.com%2Fcss%3Ffamily%3DPoppins;verticalAlign=top;" parent="HGRYmRGOkshQXvAgNZ_G-12" vertex="1">
          <mxGeometry width="266" height="100" as="geometry" />
        </mxCell>
        <mxCell id="HGRYmRGOkshQXvAgNZ_G-14" style="edgeStyle=orthogonalEdgeStyle;rounded=0;orthogonalLoop=1;jettySize=auto;html=1;" parent="HGRYmRGOkshQXvAgNZ_G-12" source="HGRYmRGOkshQXvAgNZ_G-15" target="HGRYmRGOkshQXvAgNZ_G-16" edge="1">
          <mxGeometry relative="1" as="geometry" />
        </mxCell>
        <mxCell id="HGRYmRGOkshQXvAgNZ_G-15" value="Product&lt;br&gt;Configurator&lt;br&gt;Service" style="html=1;outlineConnect=0;whiteSpace=wrap;fillColor=#99ffff;shape=mxgraph.archimate3.application;appType=serv;archiType=rounded;fontFamily=Poppins;fontSource=https%3A%2F%2Ffonts.googleapis.com%2Fcss%3Ffamily%3DPoppins;" parent="HGRYmRGOkshQXvAgNZ_G-12" vertex="1">
          <mxGeometry x="16" y="30" width="120" height="60" as="geometry" />
        </mxCell>
        <mxCell id="HGRYmRGOkshQXvAgNZ_G-16" value="&lt;div style=&quot;line-height: 160%;&quot;&gt;&lt;div&gt;Product&lt;/div&gt;&lt;div&gt;Configuration&lt;/div&gt;&lt;/div&gt;" style="html=1;outlineConnect=0;whiteSpace=wrap;fillColor=#99ffff;shape=mxgraph.archimate3.businessObject;overflow=fill;fontFamily=Poppins;fontSource=https%3A%2F%2Ffonts.googleapis.com%2Fcss%3Ffamily%3DPoppins;fontSize=10;spacingTop=0;verticalAlign=top;spacing=0;spacingLeft=0;" parent="HGRYmRGOkshQXvAgNZ_G-12" vertex="1">
          <mxGeometry x="166" y="40" width="83" height="40" as="geometry" />
        </mxCell>
        <mxCell id="HGRYmRGOkshQXvAgNZ_G-17" style="edgeStyle=orthogonalEdgeStyle;rounded=0;orthogonalLoop=1;jettySize=auto;html=1;" parent="1" source="HGRYmRGOkshQXvAgNZ_G-10" target="HGRYmRGOkshQXvAgNZ_G-2" edge="1">
          <mxGeometry relative="1" as="geometry" />
        </mxCell>
        <mxCell id="HGRYmRGOkshQXvAgNZ_G-18" style="edgeStyle=orthogonalEdgeStyle;rounded=0;orthogonalLoop=1;jettySize=auto;html=1;" parent="1" source="HGRYmRGOkshQXvAgNZ_G-15" target="HGRYmRGOkshQXvAgNZ_G-10" edge="1">
          <mxGeometry relative="1" as="geometry" />
        </mxCell>
        <mxCell id="HGRYmRGOkshQXvAgNZ_G-19" style="edgeStyle=orthogonalEdgeStyle;rounded=1;orthogonalLoop=1;jettySize=auto;html=1;curved=0;" parent="1" source="HGRYmRGOkshQXvAgNZ_G-15" target="HGRYmRGOkshQXvAgNZ_G-2" edge="1">
          <mxGeometry relative="1" as="geometry">
            <Array as="points">
              <mxPoint x="396" y="610" />
              <mxPoint x="610" y="610" />
              <mxPoint x="610" y="450" />
              <mxPoint x="396" y="450" />
            </Array>
          </mxGeometry>
        </mxCell>
        <mxCell id="HGRYmRGOkshQXvAgNZ_G-21" style="edgeStyle=orthogonalEdgeStyle;rounded=0;orthogonalLoop=1;jettySize=auto;html=1;" parent="1" source="HGRYmRGOkshQXvAgNZ_G-20" target="HGRYmRGOkshQXvAgNZ_G-2" edge="1">
          <mxGeometry relative="1" as="geometry" />
        </mxCell>
        <mxCell id="HGRYmRGOkshQXvAgNZ_G-20" value="Components Library&lt;br&gt;MicroFE" style="html=1;outlineConnect=0;whiteSpace=wrap;fillColor=#99ffff;shape=mxgraph.archimate3.application;appType=interface;archiType=square;fontFamily=Poppins;fontSource=https%3A%2F%2Ffonts.googleapis.com%2Fcss%3Ffamily%3DPoppins;" parent="1" vertex="1">
          <mxGeometry x="120" y="360" width="130" height="60" as="geometry" />
        </mxCell>
        <mxCell id="HGRYmRGOkshQXvAgNZ_G-23" style="edgeStyle=orthogonalEdgeStyle;rounded=0;orthogonalLoop=1;jettySize=auto;html=1;" parent="1" source="HGRYmRGOkshQXvAgNZ_G-22" target="HGRYmRGOkshQXvAgNZ_G-10" edge="1">
          <mxGeometry relative="1" as="geometry" />
        </mxCell>
        <mxCell id="HGRYmRGOkshQXvAgNZ_G-22" value="Building Blocks&lt;br&gt;MicroFE" style="html=1;outlineConnect=0;whiteSpace=wrap;fillColor=#99ffff;shape=mxgraph.archimate3.application;appType=interface;archiType=square;fontFamily=Poppins;fontSource=https%3A%2F%2Ffonts.googleapis.com%2Fcss%3Ffamily%3DPoppins;" parent="1" vertex="1">
          <mxGeometry x="120" y="510" width="130" height="60" as="geometry" />
        </mxCell>
        <mxCell id="HGRYmRGOkshQXvAgNZ_G-25" style="edgeStyle=orthogonalEdgeStyle;rounded=0;orthogonalLoop=1;jettySize=auto;html=1;" parent="1" source="HGRYmRGOkshQXvAgNZ_G-24" target="HGRYmRGOkshQXvAgNZ_G-15" edge="1">
          <mxGeometry relative="1" as="geometry" />
        </mxCell>
        <mxCell id="HGRYmRGOkshQXvAgNZ_G-24" value="Product&lt;br&gt;Configuration&lt;br&gt;MicroFE" style="html=1;outlineConnect=0;whiteSpace=wrap;fillColor=#99ffff;shape=mxgraph.archimate3.application;appType=interface;archiType=square;fontFamily=Poppins;fontSource=https%3A%2F%2Ffonts.googleapis.com%2Fcss%3Ffamily%3DPoppins;" parent="1" vertex="1">
          <mxGeometry x="120" y="660" width="130" height="60" as="geometry" />
        </mxCell>
        <mxCell id="ghqr43D6T2IHy0TQdt4e-2" value="" style="rounded=1;whiteSpace=wrap;html=1;fillColor=#E6FFCC;strokeColor=none;" vertex="1" parent="1">
          <mxGeometry x="662" y="310" width="90" height="440" as="geometry" />
        </mxCell>
        <mxCell id="ghqr43D6T2IHy0TQdt4e-3" value="Kafka" style="shape=image;verticalLabelPosition=middle;labelBackgroundColor=none;verticalAlign=middle;aspect=fixed;imageAspect=0;image=data:image/png,iVBORw0KGgoAAAANSUhEUgAAAQAAAAEACAYAAABccqhmAAAACXBIWXMAAAsSAAALEgHS3X78AAAZUklEQVR42u2debSWxZHGS4JoxBU1QHCLCgbEgPuuI7gAgwoG4aDijg4RcHfihuMSg7iMK2rQEBR3jfsWDMR1BMVdA0YRXFBBNhGRRZx+7L4zNzcX7uV+1W93v/38zqm/OOfS3V9Vvd3V1VUiRJu1jexj5FQjI4w8Y2SSkS+NzDPyjZE5Rj4x8rqRB41cZeQYI+2NrMolJCQdVjHySyPnGHnRyEIjP1QgM4zca6SfkfW4vITESVMj/Y2MN/J9hUa/PMFu4Q4jezhHQwiJYIuPr/0Xnoy+Nllm5CUj3Yw04k9ASPE0dl/8zws0/NocwTgj2/LnIKQ4tjbyQkDDrymLjVxuZA3+NIT4A+fu37iz+A8RyptGtuHPRIg++LreFqnhV5f5Rvrw5yJEjw0j2/LXJUuNnC28KSCkYloaeSsh468eILyMToCQyr78KRp/dbmUToCQhp35X0rc+Kt2Aifz5ySk/iC55o4SGH+VLDHSlT8rIfVjcImMv0q+MrIZf1pCVkwHI9+W0AFAkDXYmD8xIbWDp7cTSmr8VTKQPzMhtTOw5MYPmSv2apMQUo1mRmZ6Nj687b/PyJlGeop91ruzkU5i3/sPNfK8kUWexzGCPzch/8zFnowNtQGeMtLdyGr1HEsLI6cZ+cjTmOBgtuJPTohlXSOzPRjaa0b2rGBcqztH8DV3AYT442QPX/3LV+KLXxetjbyqPMYFRn7Gn57kDpJ+3hbdt/nHehjnmkYeVXYCp/PnJ7mzvfKX/xiPY13dxRM0jyh8J0Cy5vei+/CmiHjFJEWHxWAgyRZ8/d5UMiZUA25S0Lh3dkcNjXHzoRDJFly3LRGdAhw7FTz24UoO4BGqAcmVg5WM6MEAY28lOm8WUM6c7wNIllyg5AD2CTT+20WnXsAmVAWSI/cqGNDHAb+gXZUcWBeqAsmRVxSM548Bx4/cAI0S5QOoCiRHPlUwnhMDz0Hj+fLFVAWSG0jTnadgPJ0Cz2O0whyGUx1IbqCbr0YUvX3geVytMIeRVAeSG2uJzrv70Jl0wxTmcBvVgeTGGko7gI6B53GdpB3IJCQIqP+nUQOgW+B53K8wh2upDiRHpioYzxkBx4+3DO8pzGEIVYHkiEbDzwcDjr+56DwKOoaqQHLkT6JTZbdpoPEfJTqZgHtSFUiOnKFkQEcEGv9Y0WkbxtJgJEv2UXIAqNf3k4LHvoPYgh6Vjv1DYVUgkilri14bsL4FjhsG+xelcY+iGpCcGadkSNML3Eprnf0h/agCJGdOUzSmJ8TmF/gEqcfzlMb7ndibBEKyZTPRKQtWJTd7jAdsamSK4lif5s9PiMgY0a23j8c1qymPsZ2y8RcdtyAkWg4R/dZbLxrZQmFsCPgdZmSO8vg+N/LTxH6nRi7OghuQHmIbsKCj8ylGTjJytNgejHifsb7wdoPUE5zbJ3twAvONnC/2tqEhbGPkMbF1+7THdn4CvwvKrO/mxvqk2EBrfa8+caybKjZTE3GeDlL8VS1JiGM8GFmVoO34Ve7LVVf9wHWM9HKGv9TTeGaJbYce61d+TxdL+VJxzsvcEepy51gJ+ZddwNsenUD1Mtz4ml3nvmy/FVuSC09yUd7r2wLG8J8Rrj+OI8cX9BtgF/GckZ7cFZDq7Cc62XUxy+TIzv7YER1n5KNA6/GGixswXkB+5LYSG//3zsnFwi5GJkawLsvcrmxLqj9B9HhaSR3ADZGsMbocXya6+RdaQduBLg5BMmZv0akXGJO8LrYMWmg2E51S5j4FNwfr0QzyZrD4uX4LITMi2d4iuv9lImv2Ho8EeYOg0DUlMP4FRvaKYD2RuPNtYmuHG5vtaQr5giuiUQkbPx77HBTBOvZK+EiFnIkdaQr5gmuqWxP98sdg/F2cI0r9CNWOppAviApfmlBMYKYLZIYG6bdzSxJHQeUkPp3OHBTP+CZyRUViS+sI1grXqf+Qct2k/FX813sgkYOCHK9LnEk+N4ltGR5DAPV+KWcuxYU0AYK3/v8l8US1sT3tGtH6HCXlzaZEH4ZdaAIEtDFyn4R7P4Dz9XkSri9BbTR3MYgyv6fAMasJ1Z9UsYNzBIuluCDfJUY2jHAtbi5oDRCL+buRZ8VWSH7eyAdS3I3DIKo9qckv3BnRR/BriVP2YyM559dGO89OENl56GO4k9T+ohGxBxRfQb8HvPv/1ONYkNG4DlWe1AYSiLYT+97/+QqUbLoLpp1oZOME5n2nJ2Ob4GIcK/t2H7GaI93OwMe4zqaqk7poXYGCbZ3Y7kc72w/b/JOk8qIdeAQ1VPRfH34m6dVVJAk5gJSyzy5VNi4UCOmgPMZuol9c9TCqOMndAayqfN6e7PHIg7z+WaKbHERI1g6gk3JwbQvP4/030bstQNCzFdWc5OwAtJ5Nowpyl4LGfKqi0+pPNSe5OgBcvU1SMqQRBY4bgcUXlMZ9P9Wc5OoAWopO/4KvjbQoeOxoOqKRxTldWF6cZOoADlT6il4baPcyVmHseCa+OVWd5OgAzlUyoA6Bxn+YkgM7mKpOcnQAIxWM530J15gD1X8XKszhdKo6ydEBaGyhbw08h/EKc7ieqk5ydADvKBjP4MBzGKEwh3uo6iQ3B4Btu0YXpZ6B53GewhyepKqT3BwAiqVOVzCeToHnMViYEkzoAII5gH0Dz+MUhTmMoaqTHGMAGm29eweew0UKc3iMqk5ydABvKBjPbwPPYbTCHO6gqpMcHcATCsZzb+A5vKcwh6uo6qQ22legVGjqGXuO+Y0KxoMmnKEabmwiOm8ZTqKqE7ChO9MiMWSiVNZJaJkzDlwxIeV2d7F17mJCI4IO6Rxo/KcojX9fqn6+tHKG8Jz474I7051ZD4rEGewl6T6pRePXd0WnjkELmkFeYGv+70YekXCtrz8XW/56y4DrgDLcGh2SULCz6AdBfZR+B5SBX4UmkQfoCHOM0pdDs10VvqDbBVoTrcIaSKZpVNCY1xKdK0zILTSL8tPIne3fj8jwa9uKwhFsVeC6bGDkRcU5nFLAmFdxRqs15l40j3LTwZ3vU+ldh4KXw9xXzif7G/lEeew4Tu3nedwDxQZYNcY73x2DSAlZXWyW2KKEjL+6TBE/0Wk02vhv0bk+q03miW3v5YNjRbdByF00k3KCbfSriRp+zWMBjFXrxqCjkbcKGDcCi0cpBtcQ8UffRu1Ozp1pKuWjt/sKlaml9f+ITXqpxIDOFJ3qOSuTB4EU25YV/p5tjYzzML43hcVASxfou8jDVyIWQS+7XRuwLpuKjdCHGvdcse3QWzXA8G8Sfy3D+9FkygOu9/5UUsOv2XDzoHquCbbfKJo5S+IJbj4t9qYAjmxD97s1dkecn7vYAbImX/IYo4CgEtKqNJvyBPseyMD4q0fa+9axJs3c9nuZxB3fWOB2CN8WuHPDmnSn2ZTny5+T8VdPHuqznDVBhZ6pGa5JfeUhYeZfac78ozJWZGypu9TYCQ3zvHVOXXAc2pimUw4uoUL/uH1GotM2Rl7jetS59e9LsykHfUsc7W/Io6IFXAfW/s+FrcU2o6RS+5clJZnHGImvFgNpAD8VnTp2lBULdlc3O2f7UeJzwdFoPZpOObiMxuldUMWoR7U1b5PwrQKy/X5GsykHO4i9/gp9d42qPqgngGSV541MMPKh2JdlqRs/CqTUlrqL9tmTEpsL0qc3oNmUA+RsvxxoKzzR3TgcYKS5LD9/fHX3tTxCbNfdLxIyFjivAbLigh7I3BuXyHxQqbgpzaY8HFmwAs0xcqXY0t4NTRpB0AkZZ09K3Hfz6K7btp5zauLWJdb5IEvyLCmuMhEpgNULDEThOu13YlNptY8viETHlJq72O1smjRgPl1Fp7Godn7/zjSX8jGgIAUaK7YRiC+wk+jrYgihjeUDI3tUOJ91jFwt/l7rrczx5Xz3oSAlY1WnrL4De0PEvkorAqSivhDIWJa5+MQ6ivNp687cRecMoLbBzcLU3lLTy7MS4RXaoQHmhXyGOws2mBnitwAm4iXDxaYn+76mxHXwJjSP8jPGs/F3CTg37Dj+WJDxIxDZqqB5ocgmyoE9KnpXozg2oX5fD+c8SQZs7nFbuTTQl782J/CQ+I2KD5Jwpa/WFFt3D2f0P4styz5/BcFQXLviBuZtZ/CnG9lFmMabJWd7NIwhEc0TX8x3PO5y1o/sd0WwroWLHWxvZCexxUoRgN1AWKmHOF7xZBTjCgz41ZcOotOiqzY5kqpEUmNj8ZNsskD8XvVVwgXiLyuOkKTwlfl3acRzRsMOHwlPX0nDkn0ICYaP6PicCM/DNTnBk+PbjipFUsJH996rEpg3rrg+9zD3gVQpkgrrin4/P1wvtUtk/pd7cAAjqVYkFXbwYACvSzqloHcU/UdDr1KtSCoc7sEB/C6h+eOK8jPl+c8W3q+TRPCRANQlsTW4z8MRiKWxSBIM96D8LRNbg3M8OMEOVC2SAneL/j1448TWwMcryE5ULZICjysr/t8TXIPdPDiAQ6haJAW0nwC/nOAabO3BAbAtFkmCscqK/0KCa/BLDw6gH1WLpMDTyoo/McE16OjBAfShapEUeFhZ8fHAJrV+8J09OIADqVokBUaJ/hPg1MpIHevBAexO1SIpcIUH5W+X2Bpc6WENWlO1SAoM9KD8Rye2Bs+Lfm3AtalaJAW6e3AAtyc0f7yG1C4P9nGCcRCSKVuK/ms4lJVOpXNMHw8OcAzViqQCylfN9mAEPROZ/2Me5j6MakVSwkcb6hS+ggjULfYw90OpUiQlLvFgBHgVuGvk8/6D+GmC0ooqRVLCRyIM5G8Sb+/49qJfCq2qbTYDgCQpUCJ7jicncFSE80XrrrGe5ns51YmkyH2eDGKWkc0im+upnuYK2YOqRFLk1x6NYrzbZcTAXka+8zTPTySuYii44dlIbE/AA8TWKEDxk4Pdse9XYkuX/YTqT5qKrebjywlghxG6UCYaZM7wOEd0Vx4q4brrbio2CxPBTbzKnCc2GFtX0BK/O7IhrzXSW1jPMFuu8WgckNESrm1WW/eF/qEAQaPVot5DoK37uUbeEL3+jgiOoq7DYCPNaRb50NZ9xXwaB0qQrRtg2z+jIOOvkvlGBoifWxDcMuxr5IkCfi+kSd8ptn8CyYCHCzCOSe5c6hucbU/zeOavjzxipIXinPZxX+dlBc/je+e8t6eJlJud63Fu1BAYJRqIrOlpHrjnHxfQ8KvLdLGPrioBLdwfKOi3qSvOMcLIBjSV8vJQgQqFc/lARUfQxsgt4ifJp9Iv6PUu2Lqy2/3jjcyNbD5waj1oKuWNBRS9bZ7hgpBIH17Z24L1xFbhLeJMXKm8LfVvH46aAvdEPBc4tesk3K0H8cgVARXrS7cLGeIMe2+xnXZQvhvNTHGn3d/I1UZeMrIwcqOvKRjvGbLi+/ctxKYVpzCf54RXh6VjLSNTEjOs1GSMO9vXBIG2zxOby2SxV5KkROCqaSkN1asgCad3jSDsrETnMk1sgRlSIq6kkXoXXOmNFFtJeGbic/lQbPoxKQmruXM2DbWYoFoZ5jFRWBS1VMCjf0oD/VGeSXiLXqTg9qIRTac8IBX068yV+lmxxU43MfJXGnmdMohmUy66Sdi02pCCxzbrV1sLPPs9S9K7gixS0CWqLc2mXKBuwKLMFPldIy2Xsx7bu3+nwS9/18R6AyUDBSW+zUSB31yB8VeB9N4bIg7i4ZYBJd/QuBUPsaYVfJw7giZTPvbJIBiGx0TNVmJN0BE4lgQe5Bfc4nZsSDZatZbbHdzZH2nkXiPfeBzLVEmvYSypB+3cF6WMxn+rNKy7EXYLjwYcN4ztRFn5R0d43XeuR6d+Es2lnKC4xwMlMnwcbX4jlZX2buT+xjcFjruqHFnTCn9P5PSPFv16Ax9I+JJwxBNVCj+/BOf9bRXXBY+XJha03d9PcdxwfnhspX3jczBNpdyg1dYzCRo+rvIuET8NTfE3h4m/Z8qIOWzj6ffsphzsfYQmksdu4DB3Fk0hB/9J96X2DcpwT1MePyL5vkt0oc/hUkVHy0pCmYA+AEiU+SJS43/RyP5SbBsvJBK9rOi8Di9o3L8XXgmSBoK6AicbeT8Co8eX7Al3Xg7Vv+8Vpbk8UOAccGX4ltK4R9Mk8gQR4C7i/865NvnIfcXaBF4D5BRoZFFiK71FwWPvIjo3A9OEj4SyZx2xpb5Gi5/EGQTckLuPa7HdJJ52XVpdmEcGGDt2GxMUxo5syY1pAqQKGCcejBwntmpuQ68SYfAXGTlI4u1mc7rS2X/XQOPvr+TAulHtyfKY3EClOiuBuf1BaQsd6nENHOtihTmcTDUnOTqApxWM5/bAc3hDYQ7XUM1Jjg5AI5J+euA5jFSYw11Uc5KjA5iqYDy9As/hAoU5PEE1J7k5AFx9TVcwns6B53GywhyeoZoTOgA6AEJ4BOARgJA8HMCbwiAgg4AkWwcwRngNyGtAkq0DuEWYCMREIJKtAzhTmArMVGCSrQM4QNJ+DDRe+BiI0AE0mA2UttB8DkzoABJ0AEDjJoAFQQgdQKIOYKiwJBgh2TqAXRSNiUVBCR1AYg4AV3j/UHQCPsuCdxWWBSd0AOqcK7ol0Hw0Bjle2BiE0AF4oYWRBaJfB5GtwUjSoIvOhw1UsAslreulG0W/GGpVc9AThM1BSSIgKWSQ2A49c6SyBBOU/x4htk33GpHPe1Pl83VNmenW4hBhe3ASGU2M9Bb7OMZXz7xZ7ivbMeJ1GOrR6GpeGcK5ThHbzh0G+XVB/zev/sj/ga/AQPelLkr5sDNAMc49I1yPtUW/X2Bs8qyEe7xEIgFn8z4VnO+1voIPS/juQDU50DmpMho/Ap1tqf55s7nolMPWEpy7z3fHkFi4qaQOYBDVP2/6GZkbqXK+7IJgMYCA5aslM/57hI9+sg7yDRf9u2QfgcLukazZL0SnaGgMMtHFN0iGoPHnXxJS1iUuMBkDO0a8Y6qvIM6zEc0gT9Y38kqCSrvMxQVWiWAN9zYyL1HjnxbRsYoUzLqJn2PhBM6NZC3R0vyrxNZvsgv4kgxBVtnYEpxdcR3XP5I1xfXZ+4ms23Ni3xCQDMG2+RYpT/R6kZFOkaxtM7FPaGN2mNe5DwDJlP4Sf7S/IW/sW0Wyvo1ckHJ+hGvUg+qfN20jVEwteUriusdGEdBHI3C2uDXBIyNW9smcxkZekHLnsZ8Q4XELpcXHS5jt/uPivwQZSYQTSm78VZV2YgxuYWeyv9ulLBH/qdPo5bcTVZ5UgWSfLzwr3lz3xUE32sPdlw/BuQOd87lWbMaZbwO4IfLfAkcD5DCg3LhW8c5Fbnc3WGw7MEL+iSHi7y4ez0dRiba+FW02dQbwmacxoS5eCvfbOB5sZuRod0afIDahqK6Xht+7nc6LYpt2Hiq80iMrADneMz0Y2rtuW9vQbLw1nSNY4GFsNyb6W6EKUEsj27kdVE9n4IjedzbSwX3hG1OtSX05ycNX/3rRKxm1tZG3lceImw5GvUn24Ov8hqJhLRU/xSJ9PEhiS2uSPR1F7x4af2eAx7Hijf04RQfwisTxWIiQYFyiaFBXFTBevE7UKkOGYBlfupGseV3JmF6T4vLH9xC9q0KWuCLZ0lzJkPAl3b3gsWs9VnqQakBy5UAlI3o0wNiRK7BQdB7AsMQ1yZILlBzAfoHGf5foBC43oSqQHLlbwYA+lXANIrsrObD9qQokRzRq/Y0KOP61RKcX339QFUiOfKpgPAMCz0GjZuHFVAWSG6jzr1GuunPgedwh5X8dSIg6TZW2z+0Dz+NqhTmMpDqQ3MD5eZGC8WwVeB7DFOZwG9WB5Aby6jWe2XYIPI/rFOZwK9WB5Aau7mYrGE/XwPO4T2EO11IdSI5MVTCe0wLP4R2FOQyhKpAc0agA/EDA8W9oZLHCHI6lKpAcGaVgPLNdPCEEh4tOJuDeVAWSI2cqGVCfQOPXqBCECkYsmEmypLOSA3hZiu+401F0SmZPEVYFIpmCOnsLlZxArwLHDYN9XGnco6kGJGeeVTKkj8WW6yqCvqJXx/AoqgBhHEBHHhL/xTWQeThb9LrltKQKkJzZXPTaT0Gu8RgP+LmR9xXH+gx/fkJ0S21Xdd3RLhLS2sgk5XH2409PiL3G0269NVb0Sm2h/dVXyuP7Uurfq5CQUoPaAB96cAJzjJwhDU8UamPkXtEL+FWXC/mzE/L/nCB+OvFCpottQLJNPeIDcBbdnOEv8jQeOCb2BSSkGqt5OGPXVoF3mtj3A5e53QH6850jtirP38S2v/7Bs5zHn5uQf6W7p+12TDKFZ39CamcVt/Uuq/F/744XhJDl0Nyd2cvoAEbw5yWkbrqIXvPNWASFQ9biT0tI/TinRMaP1OG2/EkJqT+4rru1BMb/nYTrXUhI0iCd9/6EjR/lwnrzZySk4SA/4J5Ev/x9+PMRorMTuD4h40emXxf+bITogRyBge7LGrPxI5uxPX8uQvywi+i+yddMM75dbJkzQohHcJ+OppyLIzF+tDn/tbC4JyGFsq3Yqjqh3g98Y2Qov/qEhI0NoLz4GLG59kUY/jy3A9mIy09IPPxKbE3AL8TPQ55XjQwy0oxLTUi8NHG7giuMvCYNvzmYZeRJsQ1I2/CMT0iarGtkVyPHia0MhBTjPxt5ysUQ0OTjbiPDjZxt5FCxuftNuHSkSP4X++MPoUBbrVkAAAAASUVORK5CYII=;labelPosition=right;align=left;fontFamily=Poppins;fontSource=https%3A%2F%2Ffonts.googleapis.com%2Fcss%3Ffamily%3DPoppins;" vertex="1" parent="1">
          <mxGeometry x="672" y="320" width="20" height="20" as="geometry" />
        </mxCell>
        <mxCell id="ghqr43D6T2IHy0TQdt4e-17" style="edgeStyle=orthogonalEdgeStyle;rounded=0;orthogonalLoop=1;jettySize=auto;html=1;" edge="1" parent="1" source="ghqr43D6T2IHy0TQdt4e-4" target="ghqr43D6T2IHy0TQdt4e-15">
          <mxGeometry relative="1" as="geometry" />
        </mxCell>
        <mxCell id="ghqr43D6T2IHy0TQdt4e-4" value="Products&#xa;Topic" style="shape=image;verticalLabelPosition=bottom;labelBackgroundColor=none;verticalAlign=top;aspect=fixed;imageAspect=0;image=data:image/png,iVBORw0KGgoAAAANSUhEUgAAAQAAAAEACAYAAABccqhmAAAACXBIWXMAAAsSAAALEgHS3X78AAAZUklEQVR42u2debSWxZHGS4JoxBU1QHCLCgbEgPuuI7gAgwoG4aDijg4RcHfihuMSg7iMK2rQEBR3jfsWDMR1BMVdA0YRXFBBNhGRRZx+7L4zNzcX7uV+1W93v/38zqm/OOfS3V9Vvd3V1VUiRJu1jexj5FQjI4w8Y2SSkS+NzDPyjZE5Rj4x8rqRB41cZeQYI+2NrMolJCQdVjHySyPnGHnRyEIjP1QgM4zca6SfkfW4vITESVMj/Y2MN/J9hUa/PMFu4Q4jezhHQwiJYIuPr/0Xnoy+Nllm5CUj3Yw04k9ASPE0dl/8zws0/NocwTgj2/LnIKQ4tjbyQkDDrymLjVxuZA3+NIT4A+fu37iz+A8RyptGtuHPRIg++LreFqnhV5f5Rvrw5yJEjw0j2/LXJUuNnC28KSCkYloaeSsh468eILyMToCQyr78KRp/dbmUToCQhp35X0rc+Kt2Aifz5ySk/iC55o4SGH+VLDHSlT8rIfVjcImMv0q+MrIZf1pCVkwHI9+W0AFAkDXYmD8xIbWDp7cTSmr8VTKQPzMhtTOw5MYPmSv2apMQUo1mRmZ6Nj687b/PyJlGeop91ruzkU5i3/sPNfK8kUWexzGCPzch/8zFnowNtQGeMtLdyGr1HEsLI6cZ+cjTmOBgtuJPTohlXSOzPRjaa0b2rGBcqztH8DV3AYT442QPX/3LV+KLXxetjbyqPMYFRn7Gn57kDpJ+3hbdt/nHehjnmkYeVXYCp/PnJ7mzvfKX/xiPY13dxRM0jyh8J0Cy5vei+/CmiHjFJEWHxWAgyRZ8/d5UMiZUA25S0Lh3dkcNjXHzoRDJFly3LRGdAhw7FTz24UoO4BGqAcmVg5WM6MEAY28lOm8WUM6c7wNIllyg5AD2CTT+20WnXsAmVAWSI/cqGNDHAb+gXZUcWBeqAsmRVxSM548Bx4/cAI0S5QOoCiRHPlUwnhMDz0Hj+fLFVAWSG0jTnadgPJ0Cz2O0whyGUx1IbqCbr0YUvX3geVytMIeRVAeSG2uJzrv70Jl0wxTmcBvVgeTGGko7gI6B53GdpB3IJCQIqP+nUQOgW+B53K8wh2upDiRHpioYzxkBx4+3DO8pzGEIVYHkiEbDzwcDjr+56DwKOoaqQHLkT6JTZbdpoPEfJTqZgHtSFUiOnKFkQEcEGv9Y0WkbxtJgJEv2UXIAqNf3k4LHvoPYgh6Vjv1DYVUgkilri14bsL4FjhsG+xelcY+iGpCcGadkSNML3Eprnf0h/agCJGdOUzSmJ8TmF/gEqcfzlMb7ndibBEKyZTPRKQtWJTd7jAdsamSK4lif5s9PiMgY0a23j8c1qymPsZ2y8RcdtyAkWg4R/dZbLxrZQmFsCPgdZmSO8vg+N/LTxH6nRi7OghuQHmIbsKCj8ylGTjJytNgejHifsb7wdoPUE5zbJ3twAvONnC/2tqEhbGPkMbF1+7THdn4CvwvKrO/mxvqk2EBrfa8+caybKjZTE3GeDlL8VS1JiGM8GFmVoO34Ve7LVVf9wHWM9HKGv9TTeGaJbYce61d+TxdL+VJxzsvcEepy51gJ+ZddwNsenUD1Mtz4ml3nvmy/FVuSC09yUd7r2wLG8J8Rrj+OI8cX9BtgF/GckZ7cFZDq7Cc62XUxy+TIzv7YER1n5KNA6/GGixswXkB+5LYSG//3zsnFwi5GJkawLsvcrmxLqj9B9HhaSR3ADZGsMbocXya6+RdaQduBLg5BMmZv0akXGJO8LrYMWmg2E51S5j4FNwfr0QzyZrD4uX4LITMi2d4iuv9lImv2Ho8EeYOg0DUlMP4FRvaKYD2RuPNtYmuHG5vtaQr5giuiUQkbPx77HBTBOvZK+EiFnIkdaQr5gmuqWxP98sdg/F2cI0r9CNWOppAviApfmlBMYKYLZIYG6bdzSxJHQeUkPp3OHBTP+CZyRUViS+sI1grXqf+Qct2k/FX813sgkYOCHK9LnEk+N4ltGR5DAPV+KWcuxYU0AYK3/v8l8US1sT3tGtH6HCXlzaZEH4ZdaAIEtDFyn4R7P4Dz9XkSri9BbTR3MYgyv6fAMasJ1Z9UsYNzBIuluCDfJUY2jHAtbi5oDRCL+buRZ8VWSH7eyAdS3I3DIKo9qckv3BnRR/BriVP2YyM559dGO89OENl56GO4k9T+ohGxBxRfQb8HvPv/1ONYkNG4DlWe1AYSiLYT+97/+QqUbLoLpp1oZOME5n2nJ2Ob4GIcK/t2H7GaI93OwMe4zqaqk7poXYGCbZ3Y7kc72w/b/JOk8qIdeAQ1VPRfH34m6dVVJAk5gJSyzy5VNi4UCOmgPMZuol9c9TCqOMndAayqfN6e7PHIg7z+WaKbHERI1g6gk3JwbQvP4/030bstQNCzFdWc5OwAtJ5Nowpyl4LGfKqi0+pPNSe5OgBcvU1SMqQRBY4bgcUXlMZ9P9Wc5OoAWopO/4KvjbQoeOxoOqKRxTldWF6cZOoADlT6il4baPcyVmHseCa+OVWd5OgAzlUyoA6Bxn+YkgM7mKpOcnQAIxWM530J15gD1X8XKszhdKo6ydEBaGyhbw08h/EKc7ieqk5ydADvKBjP4MBzGKEwh3uo6iQ3B4Btu0YXpZ6B53GewhyepKqT3BwAiqVOVzCeToHnMViYEkzoAII5gH0Dz+MUhTmMoaqTHGMAGm29eweew0UKc3iMqk5ydABvKBjPbwPPYbTCHO6gqpMcHcATCsZzb+A5vKcwh6uo6qQ22legVGjqGXuO+Y0KxoMmnKEabmwiOm8ZTqKqE7ChO9MiMWSiVNZJaJkzDlwxIeV2d7F17mJCI4IO6Rxo/KcojX9fqn6+tHKG8Jz474I7051ZD4rEGewl6T6pRePXd0WnjkELmkFeYGv+70YekXCtrz8XW/56y4DrgDLcGh2SULCz6AdBfZR+B5SBX4UmkQfoCHOM0pdDs10VvqDbBVoTrcIaSKZpVNCY1xKdK0zILTSL8tPIne3fj8jwa9uKwhFsVeC6bGDkRcU5nFLAmFdxRqs15l40j3LTwZ3vU+ldh4KXw9xXzif7G/lEeew4Tu3nedwDxQZYNcY73x2DSAlZXWyW2KKEjL+6TBE/0Wk02vhv0bk+q03miW3v5YNjRbdByF00k3KCbfSriRp+zWMBjFXrxqCjkbcKGDcCi0cpBtcQ8UffRu1Ozp1pKuWjt/sKlaml9f+ITXqpxIDOFJ3qOSuTB4EU25YV/p5tjYzzML43hcVASxfou8jDVyIWQS+7XRuwLpuKjdCHGvdcse3QWzXA8G8Sfy3D+9FkygOu9/5UUsOv2XDzoHquCbbfKJo5S+IJbj4t9qYAjmxD97s1dkecn7vYAbImX/IYo4CgEtKqNJvyBPseyMD4q0fa+9axJs3c9nuZxB3fWOB2CN8WuHPDmnSn2ZTny5+T8VdPHuqznDVBhZ6pGa5JfeUhYeZfac78ozJWZGypu9TYCQ3zvHVOXXAc2pimUw4uoUL/uH1GotM2Rl7jetS59e9LsykHfUsc7W/Io6IFXAfW/s+FrcU2o6RS+5clJZnHGImvFgNpAD8VnTp2lBULdlc3O2f7UeJzwdFoPZpOObiMxuldUMWoR7U1b5PwrQKy/X5GsykHO4i9/gp9d42qPqgngGSV541MMPKh2JdlqRs/CqTUlrqL9tmTEpsL0qc3oNmUA+RsvxxoKzzR3TgcYKS5LD9/fHX3tTxCbNfdLxIyFjivAbLigh7I3BuXyHxQqbgpzaY8HFmwAs0xcqXY0t4NTRpB0AkZZ09K3Hfz6K7btp5zauLWJdb5IEvyLCmuMhEpgNULDEThOu13YlNptY8viETHlJq72O1smjRgPl1Fp7Godn7/zjSX8jGgIAUaK7YRiC+wk+jrYgihjeUDI3tUOJ91jFwt/l7rrczx5Xz3oSAlY1WnrL4De0PEvkorAqSivhDIWJa5+MQ6ivNp687cRecMoLbBzcLU3lLTy7MS4RXaoQHmhXyGOws2mBnitwAm4iXDxaYn+76mxHXwJjSP8jPGs/F3CTg37Dj+WJDxIxDZqqB5ocgmyoE9KnpXozg2oX5fD+c8SQZs7nFbuTTQl782J/CQ+I2KD5Jwpa/WFFt3D2f0P4styz5/BcFQXLviBuZtZ/CnG9lFmMabJWd7NIwhEc0TX8x3PO5y1o/sd0WwroWLHWxvZCexxUoRgN1AWKmHOF7xZBTjCgz41ZcOotOiqzY5kqpEUmNj8ZNsskD8XvVVwgXiLyuOkKTwlfl3acRzRsMOHwlPX0nDkn0ICYaP6PicCM/DNTnBk+PbjipFUsJH996rEpg3rrg+9zD3gVQpkgrrin4/P1wvtUtk/pd7cAAjqVYkFXbwYACvSzqloHcU/UdDr1KtSCoc7sEB/C6h+eOK8jPl+c8W3q+TRPCRANQlsTW4z8MRiKWxSBIM96D8LRNbg3M8OMEOVC2SAneL/j1448TWwMcryE5ULZICjysr/t8TXIPdPDiAQ6haJAW0nwC/nOAabO3BAbAtFkmCscqK/0KCa/BLDw6gH1WLpMDTyoo/McE16OjBAfShapEUeFhZ8fHAJrV+8J09OIADqVokBUaJ/hPg1MpIHevBAexO1SIpcIUH5W+X2Bpc6WENWlO1SAoM9KD8Rye2Bs+Lfm3AtalaJAW6e3AAtyc0f7yG1C4P9nGCcRCSKVuK/ms4lJVOpXNMHw8OcAzViqQCylfN9mAEPROZ/2Me5j6MakVSwkcb6hS+ggjULfYw90OpUiQlLvFgBHgVuGvk8/6D+GmC0ooqRVLCRyIM5G8Sb+/49qJfCq2qbTYDgCQpUCJ7jicncFSE80XrrrGe5ns51YmkyH2eDGKWkc0im+upnuYK2YOqRFLk1x6NYrzbZcTAXka+8zTPTySuYii44dlIbE/AA8TWKEDxk4Pdse9XYkuX/YTqT5qKrebjywlghxG6UCYaZM7wOEd0Vx4q4brrbio2CxPBTbzKnCc2GFtX0BK/O7IhrzXSW1jPMFuu8WgckNESrm1WW/eF/qEAQaPVot5DoK37uUbeEL3+jgiOoq7DYCPNaRb50NZ9xXwaB0qQrRtg2z+jIOOvkvlGBoifWxDcMuxr5IkCfi+kSd8ptn8CyYCHCzCOSe5c6hucbU/zeOavjzxipIXinPZxX+dlBc/je+e8t6eJlJud63Fu1BAYJRqIrOlpHrjnHxfQ8KvLdLGPrioBLdwfKOi3qSvOMcLIBjSV8vJQgQqFc/lARUfQxsgt4ifJp9Iv6PUu2Lqy2/3jjcyNbD5waj1oKuWNBRS9bZ7hgpBIH17Z24L1xFbhLeJMXKm8LfVvH46aAvdEPBc4tesk3K0H8cgVARXrS7cLGeIMe2+xnXZQvhvNTHGn3d/I1UZeMrIwcqOvKRjvGbLi+/ctxKYVpzCf54RXh6VjLSNTEjOs1GSMO9vXBIG2zxOby2SxV5KkROCqaSkN1asgCad3jSDsrETnMk1sgRlSIq6kkXoXXOmNFFtJeGbic/lQbPoxKQmruXM2DbWYoFoZ5jFRWBS1VMCjf0oD/VGeSXiLXqTg9qIRTac8IBX068yV+lmxxU43MfJXGnmdMohmUy66Sdi02pCCxzbrV1sLPPs9S9K7gixS0CWqLc2mXKBuwKLMFPldIy2Xsx7bu3+nwS9/18R6AyUDBSW+zUSB31yB8VeB9N4bIg7i4ZYBJd/QuBUPsaYVfJw7giZTPvbJIBiGx0TNVmJN0BE4lgQe5Bfc4nZsSDZatZbbHdzZH2nkXiPfeBzLVEmvYSypB+3cF6WMxn+rNKy7EXYLjwYcN4ztRFn5R0d43XeuR6d+Es2lnKC4xwMlMnwcbX4jlZX2buT+xjcFjruqHFnTCn9P5PSPFv16Ax9I+JJwxBNVCj+/BOf9bRXXBY+XJha03d9PcdxwfnhspX3jczBNpdyg1dYzCRo+rvIuET8NTfE3h4m/Z8qIOWzj6ffsphzsfYQmksdu4DB3Fk0hB/9J96X2DcpwT1MePyL5vkt0oc/hUkVHy0pCmYA+AEiU+SJS43/RyP5SbBsvJBK9rOi8Di9o3L8XXgmSBoK6AicbeT8Co8eX7Al3Xg7Vv+8Vpbk8UOAccGX4ltK4R9Mk8gQR4C7i/865NvnIfcXaBF4D5BRoZFFiK71FwWPvIjo3A9OEj4SyZx2xpb5Gi5/EGQTckLuPa7HdJJ52XVpdmEcGGDt2GxMUxo5syY1pAqQKGCcejBwntmpuQ68SYfAXGTlI4u1mc7rS2X/XQOPvr+TAulHtyfKY3EClOiuBuf1BaQsd6nENHOtihTmcTDUnOTqApxWM5/bAc3hDYQ7XUM1Jjg5AI5J+euA5jFSYw11Uc5KjA5iqYDy9As/hAoU5PEE1J7k5AFx9TVcwns6B53GywhyeoZoTOgA6AEJ4BOARgJA8HMCbwiAgg4AkWwcwRngNyGtAkq0DuEWYCMREIJKtAzhTmArMVGCSrQM4QNJ+DDRe+BiI0AE0mA2UttB8DkzoABJ0AEDjJoAFQQgdQKIOYKiwJBgh2TqAXRSNiUVBCR1AYg4AV3j/UHQCPsuCdxWWBSd0AOqcK7ol0Hw0Bjle2BiE0AF4oYWRBaJfB5GtwUjSoIvOhw1UsAslreulG0W/GGpVc9AThM1BSSIgKWSQ2A49c6SyBBOU/x4htk33GpHPe1Pl83VNmenW4hBhe3ASGU2M9Bb7OMZXz7xZ7ivbMeJ1GOrR6GpeGcK5ThHbzh0G+XVB/zev/sj/ga/AQPelLkr5sDNAMc49I1yPtUW/X2Bs8qyEe7xEIgFn8z4VnO+1voIPS/juQDU50DmpMho/Ap1tqf55s7nolMPWEpy7z3fHkFi4qaQOYBDVP2/6GZkbqXK+7IJgMYCA5aslM/57hI9+sg7yDRf9u2QfgcLukazZL0SnaGgMMtHFN0iGoPHnXxJS1iUuMBkDO0a8Y6qvIM6zEc0gT9Y38kqCSrvMxQVWiWAN9zYyL1HjnxbRsYoUzLqJn2PhBM6NZC3R0vyrxNZvsgv4kgxBVtnYEpxdcR3XP5I1xfXZ+4ms23Ni3xCQDMG2+RYpT/R6kZFOkaxtM7FPaGN2mNe5DwDJlP4Sf7S/IW/sW0Wyvo1ckHJ+hGvUg+qfN20jVEwteUriusdGEdBHI3C2uDXBIyNW9smcxkZekHLnsZ8Q4XELpcXHS5jt/uPivwQZSYQTSm78VZV2YgxuYWeyv9ulLBH/qdPo5bcTVZ5UgWSfLzwr3lz3xUE32sPdlw/BuQOd87lWbMaZbwO4IfLfAkcD5DCg3LhW8c5Fbnc3WGw7MEL+iSHi7y4ez0dRiba+FW02dQbwmacxoS5eCvfbOB5sZuRod0afIDahqK6Xht+7nc6LYpt2Hiq80iMrADneMz0Y2rtuW9vQbLw1nSNY4GFsNyb6W6EKUEsj27kdVE9n4IjedzbSwX3hG1OtSX05ycNX/3rRKxm1tZG3lceImw5GvUn24Ov8hqJhLRU/xSJ9PEhiS2uSPR1F7x4af2eAx7Hijf04RQfwisTxWIiQYFyiaFBXFTBevE7UKkOGYBlfupGseV3JmF6T4vLH9xC9q0KWuCLZ0lzJkPAl3b3gsWs9VnqQakBy5UAlI3o0wNiRK7BQdB7AsMQ1yZILlBzAfoHGf5foBC43oSqQHLlbwYA+lXANIrsrObD9qQokRzRq/Y0KOP61RKcX339QFUiOfKpgPAMCz0GjZuHFVAWSG6jzr1GuunPgedwh5X8dSIg6TZW2z+0Dz+NqhTmMpDqQ3MD5eZGC8WwVeB7DFOZwG9WB5Aby6jWe2XYIPI/rFOZwK9WB5Aau7mYrGE/XwPO4T2EO11IdSI5MVTCe0wLP4R2FOQyhKpAc0agA/EDA8W9oZLHCHI6lKpAcGaVgPLNdPCEEh4tOJuDeVAWSI2cqGVCfQOPXqBCECkYsmEmypLOSA3hZiu+401F0SmZPEVYFIpmCOnsLlZxArwLHDYN9XGnco6kGJGeeVTKkj8WW6yqCvqJXx/AoqgBhHEBHHhL/xTWQeThb9LrltKQKkJzZXPTaT0Gu8RgP+LmR9xXH+gx/fkJ0S21Xdd3RLhLS2sgk5XH2409PiL3G0269NVb0Sm2h/dVXyuP7Uurfq5CQUoPaAB96cAJzjJwhDU8UamPkXtEL+FWXC/mzE/L/nCB+OvFCpottQLJNPeIDcBbdnOEv8jQeOCb2BSSkGqt5OGPXVoF3mtj3A5e53QH6850jtirP38S2v/7Bs5zHn5uQf6W7p+12TDKFZ39CamcVt/Uuq/F/744XhJDl0Nyd2cvoAEbw5yWkbrqIXvPNWASFQ9biT0tI/TinRMaP1OG2/EkJqT+4rru1BMb/nYTrXUhI0iCd9/6EjR/lwnrzZySk4SA/4J5Ev/x9+PMRorMTuD4h40emXxf+bITogRyBge7LGrPxI5uxPX8uQvywi+i+yddMM75dbJkzQohHcJ+OppyLIzF+tDn/tbC4JyGFsq3Yqjqh3g98Y2Qov/qEhI0NoLz4GLG59kUY/jy3A9mIy09IPPxKbE3AL8TPQ55XjQwy0oxLTUi8NHG7giuMvCYNvzmYZeRJsQ1I2/CMT0iarGtkVyPHia0MhBTjPxt5ysUQ0OTjbiPDjZxt5FCxuftNuHSkSP4X++MPoUBbrVkAAAAASUVORK5CYII=;labelPosition=center;align=center;fontFamily=Poppins;fontSource=https%3A%2F%2Ffonts.googleapis.com%2Fcss%3Ffamily%3DPoppins;fontSize=11;fontColor=default;fontStyle=0;labelBorderColor=none;" vertex="1" parent="1">
          <mxGeometry x="683.25" y="656.25" width="47.5" height="47.5" as="geometry" />
        </mxCell>
        <mxCell id="ghqr43D6T2IHy0TQdt4e-16" style="edgeStyle=orthogonalEdgeStyle;rounded=0;orthogonalLoop=1;jettySize=auto;html=1;" edge="1" parent="1" source="ghqr43D6T2IHy0TQdt4e-6" target="ghqr43D6T2IHy0TQdt4e-14">
          <mxGeometry relative="1" as="geometry" />
        </mxCell>
        <mxCell id="ghqr43D6T2IHy0TQdt4e-6" value="Components&#xa;Topic" style="shape=image;verticalLabelPosition=bottom;labelBackgroundColor=none;verticalAlign=top;aspect=fixed;imageAspect=0;image=data:image/png,iVBORw0KGgoAAAANSUhEUgAAAQAAAAEACAYAAABccqhmAAAACXBIWXMAAAsSAAALEgHS3X78AAAZUklEQVR42u2debSWxZHGS4JoxBU1QHCLCgbEgPuuI7gAgwoG4aDijg4RcHfihuMSg7iMK2rQEBR3jfsWDMR1BMVdA0YRXFBBNhGRRZx+7L4zNzcX7uV+1W93v/38zqm/OOfS3V9Vvd3V1VUiRJu1jexj5FQjI4w8Y2SSkS+NzDPyjZE5Rj4x8rqRB41cZeQYI+2NrMolJCQdVjHySyPnGHnRyEIjP1QgM4zca6SfkfW4vITESVMj/Y2MN/J9hUa/PMFu4Q4jezhHQwiJYIuPr/0Xnoy+Nllm5CUj3Yw04k9ASPE0dl/8zws0/NocwTgj2/LnIKQ4tjbyQkDDrymLjVxuZA3+NIT4A+fu37iz+A8RyptGtuHPRIg++LreFqnhV5f5Rvrw5yJEjw0j2/LXJUuNnC28KSCkYloaeSsh468eILyMToCQyr78KRp/dbmUToCQhp35X0rc+Kt2Aifz5ySk/iC55o4SGH+VLDHSlT8rIfVjcImMv0q+MrIZf1pCVkwHI9+W0AFAkDXYmD8xIbWDp7cTSmr8VTKQPzMhtTOw5MYPmSv2apMQUo1mRmZ6Nj687b/PyJlGeop91ruzkU5i3/sPNfK8kUWexzGCPzch/8zFnowNtQGeMtLdyGr1HEsLI6cZ+cjTmOBgtuJPTohlXSOzPRjaa0b2rGBcqztH8DV3AYT442QPX/3LV+KLXxetjbyqPMYFRn7Gn57kDpJ+3hbdt/nHehjnmkYeVXYCp/PnJ7mzvfKX/xiPY13dxRM0jyh8J0Cy5vei+/CmiHjFJEWHxWAgyRZ8/d5UMiZUA25S0Lh3dkcNjXHzoRDJFly3LRGdAhw7FTz24UoO4BGqAcmVg5WM6MEAY28lOm8WUM6c7wNIllyg5AD2CTT+20WnXsAmVAWSI/cqGNDHAb+gXZUcWBeqAsmRVxSM548Bx4/cAI0S5QOoCiRHPlUwnhMDz0Hj+fLFVAWSG0jTnadgPJ0Cz2O0whyGUx1IbqCbr0YUvX3geVytMIeRVAeSG2uJzrv70Jl0wxTmcBvVgeTGGko7gI6B53GdpB3IJCQIqP+nUQOgW+B53K8wh2upDiRHpioYzxkBx4+3DO8pzGEIVYHkiEbDzwcDjr+56DwKOoaqQHLkT6JTZbdpoPEfJTqZgHtSFUiOnKFkQEcEGv9Y0WkbxtJgJEv2UXIAqNf3k4LHvoPYgh6Vjv1DYVUgkilri14bsL4FjhsG+xelcY+iGpCcGadkSNML3Eprnf0h/agCJGdOUzSmJ8TmF/gEqcfzlMb7ndibBEKyZTPRKQtWJTd7jAdsamSK4lif5s9PiMgY0a23j8c1qymPsZ2y8RcdtyAkWg4R/dZbLxrZQmFsCPgdZmSO8vg+N/LTxH6nRi7OghuQHmIbsKCj8ylGTjJytNgejHifsb7wdoPUE5zbJ3twAvONnC/2tqEhbGPkMbF1+7THdn4CvwvKrO/mxvqk2EBrfa8+caybKjZTE3GeDlL8VS1JiGM8GFmVoO34Ve7LVVf9wHWM9HKGv9TTeGaJbYce61d+TxdL+VJxzsvcEepy51gJ+ZddwNsenUD1Mtz4ml3nvmy/FVuSC09yUd7r2wLG8J8Rrj+OI8cX9BtgF/GckZ7cFZDq7Cc62XUxy+TIzv7YER1n5KNA6/GGixswXkB+5LYSG//3zsnFwi5GJkawLsvcrmxLqj9B9HhaSR3ADZGsMbocXya6+RdaQduBLg5BMmZv0akXGJO8LrYMWmg2E51S5j4FNwfr0QzyZrD4uX4LITMi2d4iuv9lImv2Ho8EeYOg0DUlMP4FRvaKYD2RuPNtYmuHG5vtaQr5giuiUQkbPx77HBTBOvZK+EiFnIkdaQr5gmuqWxP98sdg/F2cI0r9CNWOppAviApfmlBMYKYLZIYG6bdzSxJHQeUkPp3OHBTP+CZyRUViS+sI1grXqf+Qct2k/FX813sgkYOCHK9LnEk+N4ltGR5DAPV+KWcuxYU0AYK3/v8l8US1sT3tGtH6HCXlzaZEH4ZdaAIEtDFyn4R7P4Dz9XkSri9BbTR3MYgyv6fAMasJ1Z9UsYNzBIuluCDfJUY2jHAtbi5oDRCL+buRZ8VWSH7eyAdS3I3DIKo9qckv3BnRR/BriVP2YyM559dGO89OENl56GO4k9T+ohGxBxRfQb8HvPv/1ONYkNG4DlWe1AYSiLYT+97/+QqUbLoLpp1oZOME5n2nJ2Ob4GIcK/t2H7GaI93OwMe4zqaqk7poXYGCbZ3Y7kc72w/b/JOk8qIdeAQ1VPRfH34m6dVVJAk5gJSyzy5VNi4UCOmgPMZuol9c9TCqOMndAayqfN6e7PHIg7z+WaKbHERI1g6gk3JwbQvP4/030bstQNCzFdWc5OwAtJ5Nowpyl4LGfKqi0+pPNSe5OgBcvU1SMqQRBY4bgcUXlMZ9P9Wc5OoAWopO/4KvjbQoeOxoOqKRxTldWF6cZOoADlT6il4baPcyVmHseCa+OVWd5OgAzlUyoA6Bxn+YkgM7mKpOcnQAIxWM530J15gD1X8XKszhdKo6ydEBaGyhbw08h/EKc7ieqk5ydADvKBjP4MBzGKEwh3uo6iQ3B4Btu0YXpZ6B53GewhyepKqT3BwAiqVOVzCeToHnMViYEkzoAII5gH0Dz+MUhTmMoaqTHGMAGm29eweew0UKc3iMqk5ydABvKBjPbwPPYbTCHO6gqpMcHcATCsZzb+A5vKcwh6uo6qQ22legVGjqGXuO+Y0KxoMmnKEabmwiOm8ZTqKqE7ChO9MiMWSiVNZJaJkzDlwxIeV2d7F17mJCI4IO6Rxo/KcojX9fqn6+tHKG8Jz474I7051ZD4rEGewl6T6pRePXd0WnjkELmkFeYGv+70YekXCtrz8XW/56y4DrgDLcGh2SULCz6AdBfZR+B5SBX4UmkQfoCHOM0pdDs10VvqDbBVoTrcIaSKZpVNCY1xKdK0zILTSL8tPIne3fj8jwa9uKwhFsVeC6bGDkRcU5nFLAmFdxRqs15l40j3LTwZ3vU+ldh4KXw9xXzif7G/lEeew4Tu3nedwDxQZYNcY73x2DSAlZXWyW2KKEjL+6TBE/0Wk02vhv0bk+q03miW3v5YNjRbdByF00k3KCbfSriRp+zWMBjFXrxqCjkbcKGDcCi0cpBtcQ8UffRu1Ozp1pKuWjt/sKlaml9f+ITXqpxIDOFJ3qOSuTB4EU25YV/p5tjYzzML43hcVASxfou8jDVyIWQS+7XRuwLpuKjdCHGvdcse3QWzXA8G8Sfy3D+9FkygOu9/5UUsOv2XDzoHquCbbfKJo5S+IJbj4t9qYAjmxD97s1dkecn7vYAbImX/IYo4CgEtKqNJvyBPseyMD4q0fa+9axJs3c9nuZxB3fWOB2CN8WuHPDmnSn2ZTny5+T8VdPHuqznDVBhZ6pGa5JfeUhYeZfac78ozJWZGypu9TYCQ3zvHVOXXAc2pimUw4uoUL/uH1GotM2Rl7jetS59e9LsykHfUsc7W/Io6IFXAfW/s+FrcU2o6RS+5clJZnHGImvFgNpAD8VnTp2lBULdlc3O2f7UeJzwdFoPZpOObiMxuldUMWoR7U1b5PwrQKy/X5GsykHO4i9/gp9d42qPqgngGSV541MMPKh2JdlqRs/CqTUlrqL9tmTEpsL0qc3oNmUA+RsvxxoKzzR3TgcYKS5LD9/fHX3tTxCbNfdLxIyFjivAbLigh7I3BuXyHxQqbgpzaY8HFmwAs0xcqXY0t4NTRpB0AkZZ09K3Hfz6K7btp5zauLWJdb5IEvyLCmuMhEpgNULDEThOu13YlNptY8viETHlJq72O1smjRgPl1Fp7Godn7/zjSX8jGgIAUaK7YRiC+wk+jrYgihjeUDI3tUOJ91jFwt/l7rrczx5Xz3oSAlY1WnrL4De0PEvkorAqSivhDIWJa5+MQ6ivNp687cRecMoLbBzcLU3lLTy7MS4RXaoQHmhXyGOws2mBnitwAm4iXDxaYn+76mxHXwJjSP8jPGs/F3CTg37Dj+WJDxIxDZqqB5ocgmyoE9KnpXozg2oX5fD+c8SQZs7nFbuTTQl782J/CQ+I2KD5Jwpa/WFFt3D2f0P4styz5/BcFQXLviBuZtZ/CnG9lFmMabJWd7NIwhEc0TX8x3PO5y1o/sd0WwroWLHWxvZCexxUoRgN1AWKmHOF7xZBTjCgz41ZcOotOiqzY5kqpEUmNj8ZNsskD8XvVVwgXiLyuOkKTwlfl3acRzRsMOHwlPX0nDkn0ICYaP6PicCM/DNTnBk+PbjipFUsJH996rEpg3rrg+9zD3gVQpkgrrin4/P1wvtUtk/pd7cAAjqVYkFXbwYACvSzqloHcU/UdDr1KtSCoc7sEB/C6h+eOK8jPl+c8W3q+TRPCRANQlsTW4z8MRiKWxSBIM96D8LRNbg3M8OMEOVC2SAneL/j1448TWwMcryE5ULZICjysr/t8TXIPdPDiAQ6haJAW0nwC/nOAabO3BAbAtFkmCscqK/0KCa/BLDw6gH1WLpMDTyoo/McE16OjBAfShapEUeFhZ8fHAJrV+8J09OIADqVokBUaJ/hPg1MpIHevBAexO1SIpcIUH5W+X2Bpc6WENWlO1SAoM9KD8Rye2Bs+Lfm3AtalaJAW6e3AAtyc0f7yG1C4P9nGCcRCSKVuK/ms4lJVOpXNMHw8OcAzViqQCylfN9mAEPROZ/2Me5j6MakVSwkcb6hS+ggjULfYw90OpUiQlLvFgBHgVuGvk8/6D+GmC0ooqRVLCRyIM5G8Sb+/49qJfCq2qbTYDgCQpUCJ7jicncFSE80XrrrGe5ns51YmkyH2eDGKWkc0im+upnuYK2YOqRFLk1x6NYrzbZcTAXka+8zTPTySuYii44dlIbE/AA8TWKEDxk4Pdse9XYkuX/YTqT5qKrebjywlghxG6UCYaZM7wOEd0Vx4q4brrbio2CxPBTbzKnCc2GFtX0BK/O7IhrzXSW1jPMFuu8WgckNESrm1WW/eF/qEAQaPVot5DoK37uUbeEL3+jgiOoq7DYCPNaRb50NZ9xXwaB0qQrRtg2z+jIOOvkvlGBoifWxDcMuxr5IkCfi+kSd8ptn8CyYCHCzCOSe5c6hucbU/zeOavjzxipIXinPZxX+dlBc/je+e8t6eJlJud63Fu1BAYJRqIrOlpHrjnHxfQ8KvLdLGPrioBLdwfKOi3qSvOMcLIBjSV8vJQgQqFc/lARUfQxsgt4ifJp9Iv6PUu2Lqy2/3jjcyNbD5waj1oKuWNBRS9bZ7hgpBIH17Z24L1xFbhLeJMXKm8LfVvH46aAvdEPBc4tesk3K0H8cgVARXrS7cLGeIMe2+xnXZQvhvNTHGn3d/I1UZeMrIwcqOvKRjvGbLi+/ctxKYVpzCf54RXh6VjLSNTEjOs1GSMO9vXBIG2zxOby2SxV5KkROCqaSkN1asgCad3jSDsrETnMk1sgRlSIq6kkXoXXOmNFFtJeGbic/lQbPoxKQmruXM2DbWYoFoZ5jFRWBS1VMCjf0oD/VGeSXiLXqTg9qIRTac8IBX068yV+lmxxU43MfJXGnmdMohmUy66Sdi02pCCxzbrV1sLPPs9S9K7gixS0CWqLc2mXKBuwKLMFPldIy2Xsx7bu3+nwS9/18R6AyUDBSW+zUSB31yB8VeB9N4bIg7i4ZYBJd/QuBUPsaYVfJw7giZTPvbJIBiGx0TNVmJN0BE4lgQe5Bfc4nZsSDZatZbbHdzZH2nkXiPfeBzLVEmvYSypB+3cF6WMxn+rNKy7EXYLjwYcN4ztRFn5R0d43XeuR6d+Es2lnKC4xwMlMnwcbX4jlZX2buT+xjcFjruqHFnTCn9P5PSPFv16Ax9I+JJwxBNVCj+/BOf9bRXXBY+XJha03d9PcdxwfnhspX3jczBNpdyg1dYzCRo+rvIuET8NTfE3h4m/Z8qIOWzj6ffsphzsfYQmksdu4DB3Fk0hB/9J96X2DcpwT1MePyL5vkt0oc/hUkVHy0pCmYA+AEiU+SJS43/RyP5SbBsvJBK9rOi8Di9o3L8XXgmSBoK6AicbeT8Co8eX7Al3Xg7Vv+8Vpbk8UOAccGX4ltK4R9Mk8gQR4C7i/865NvnIfcXaBF4D5BRoZFFiK71FwWPvIjo3A9OEj4SyZx2xpb5Gi5/EGQTckLuPa7HdJJ52XVpdmEcGGDt2GxMUxo5syY1pAqQKGCcejBwntmpuQ68SYfAXGTlI4u1mc7rS2X/XQOPvr+TAulHtyfKY3EClOiuBuf1BaQsd6nENHOtihTmcTDUnOTqApxWM5/bAc3hDYQ7XUM1Jjg5AI5J+euA5jFSYw11Uc5KjA5iqYDy9As/hAoU5PEE1J7k5AFx9TVcwns6B53GywhyeoZoTOgA6AEJ4BOARgJA8HMCbwiAgg4AkWwcwRngNyGtAkq0DuEWYCMREIJKtAzhTmArMVGCSrQM4QNJ+DDRe+BiI0AE0mA2UttB8DkzoABJ0AEDjJoAFQQgdQKIOYKiwJBgh2TqAXRSNiUVBCR1AYg4AV3j/UHQCPsuCdxWWBSd0AOqcK7ol0Hw0Bjle2BiE0AF4oYWRBaJfB5GtwUjSoIvOhw1UsAslreulG0W/GGpVc9AThM1BSSIgKWSQ2A49c6SyBBOU/x4htk33GpHPe1Pl83VNmenW4hBhe3ASGU2M9Bb7OMZXz7xZ7ivbMeJ1GOrR6GpeGcK5ThHbzh0G+XVB/zev/sj/ga/AQPelLkr5sDNAMc49I1yPtUW/X2Bs8qyEe7xEIgFn8z4VnO+1voIPS/juQDU50DmpMho/Ap1tqf55s7nolMPWEpy7z3fHkFi4qaQOYBDVP2/6GZkbqXK+7IJgMYCA5aslM/57hI9+sg7yDRf9u2QfgcLukazZL0SnaGgMMtHFN0iGoPHnXxJS1iUuMBkDO0a8Y6qvIM6zEc0gT9Y38kqCSrvMxQVWiWAN9zYyL1HjnxbRsYoUzLqJn2PhBM6NZC3R0vyrxNZvsgv4kgxBVtnYEpxdcR3XP5I1xfXZ+4ms23Ni3xCQDMG2+RYpT/R6kZFOkaxtM7FPaGN2mNe5DwDJlP4Sf7S/IW/sW0Wyvo1ckHJ+hGvUg+qfN20jVEwteUriusdGEdBHI3C2uDXBIyNW9smcxkZekHLnsZ8Q4XELpcXHS5jt/uPivwQZSYQTSm78VZV2YgxuYWeyv9ulLBH/qdPo5bcTVZ5UgWSfLzwr3lz3xUE32sPdlw/BuQOd87lWbMaZbwO4IfLfAkcD5DCg3LhW8c5Fbnc3WGw7MEL+iSHi7y4ez0dRiba+FW02dQbwmacxoS5eCvfbOB5sZuRod0afIDahqK6Xht+7nc6LYpt2Hiq80iMrADneMz0Y2rtuW9vQbLw1nSNY4GFsNyb6W6EKUEsj27kdVE9n4IjedzbSwX3hG1OtSX05ycNX/3rRKxm1tZG3lceImw5GvUn24Ov8hqJhLRU/xSJ9PEhiS2uSPR1F7x4af2eAx7Hijf04RQfwisTxWIiQYFyiaFBXFTBevE7UKkOGYBlfupGseV3JmF6T4vLH9xC9q0KWuCLZ0lzJkPAl3b3gsWs9VnqQakBy5UAlI3o0wNiRK7BQdB7AsMQ1yZILlBzAfoHGf5foBC43oSqQHLlbwYA+lXANIrsrObD9qQokRzRq/Y0KOP61RKcX339QFUiOfKpgPAMCz0GjZuHFVAWSG6jzr1GuunPgedwh5X8dSIg6TZW2z+0Dz+NqhTmMpDqQ3MD5eZGC8WwVeB7DFOZwG9WB5Aby6jWe2XYIPI/rFOZwK9WB5Aau7mYrGE/XwPO4T2EO11IdSI5MVTCe0wLP4R2FOQyhKpAc0agA/EDA8W9oZLHCHI6lKpAcGaVgPLNdPCEEh4tOJuDeVAWSI2cqGVCfQOPXqBCECkYsmEmypLOSA3hZiu+401F0SmZPEVYFIpmCOnsLlZxArwLHDYN9XGnco6kGJGeeVTKkj8WW6yqCvqJXx/AoqgBhHEBHHhL/xTWQeThb9LrltKQKkJzZXPTaT0Gu8RgP+LmR9xXH+gx/fkJ0S21Xdd3RLhLS2sgk5XH2409PiL3G0269NVb0Sm2h/dVXyuP7Uurfq5CQUoPaAB96cAJzjJwhDU8UamPkXtEL+FWXC/mzE/L/nCB+OvFCpottQLJNPeIDcBbdnOEv8jQeOCb2BSSkGqt5OGPXVoF3mtj3A5e53QH6850jtirP38S2v/7Bs5zHn5uQf6W7p+12TDKFZ39CamcVt/Uuq/F/744XhJDl0Nyd2cvoAEbw5yWkbrqIXvPNWASFQ9biT0tI/TinRMaP1OG2/EkJqT+4rru1BMb/nYTrXUhI0iCd9/6EjR/lwnrzZySk4SA/4J5Ev/x9+PMRorMTuD4h40emXxf+bITogRyBge7LGrPxI5uxPX8uQvywi+i+yddMM75dbJkzQohHcJ+OppyLIzF+tDn/tbC4JyGFsq3Yqjqh3g98Y2Qov/qEhI0NoLz4GLG59kUY/jy3A9mIy09IPPxKbE3AL8TPQ55XjQwy0oxLTUi8NHG7giuMvCYNvzmYZeRJsQ1I2/CMT0iarGtkVyPHia0MhBTjPxt5ysUQ0OTjbiPDjZxt5FCxuftNuHSkSP4X++MPoUBbrVkAAAAASUVORK5CYII=;labelPosition=center;align=center;fontFamily=Poppins;fontSource=https%3A%2F%2Ffonts.googleapis.com%2Fcss%3Ffamily%3DPoppins;fontSize=11;fontColor=default;fontStyle=0;labelBorderColor=none;" vertex="1" parent="1">
          <mxGeometry x="683.25" y="356.25" width="47.5" height="47.5" as="geometry" />
        </mxCell>
        <mxCell id="ghqr43D6T2IHy0TQdt4e-7" style="edgeStyle=orthogonalEdgeStyle;rounded=0;orthogonalLoop=1;jettySize=auto;html=1;" edge="1" parent="1" source="HGRYmRGOkshQXvAgNZ_G-1" target="ghqr43D6T2IHy0TQdt4e-6">
          <mxGeometry relative="1" as="geometry" />
        </mxCell>
        <mxCell id="ghqr43D6T2IHy0TQdt4e-8" style="edgeStyle=orthogonalEdgeStyle;rounded=0;orthogonalLoop=1;jettySize=auto;html=1;" edge="1" parent="1" source="HGRYmRGOkshQXvAgNZ_G-13" target="ghqr43D6T2IHy0TQdt4e-4">
          <mxGeometry relative="1" as="geometry" />
        </mxCell>
        <mxCell id="ghqr43D6T2IHy0TQdt4e-23" style="edgeStyle=orthogonalEdgeStyle;rounded=0;orthogonalLoop=1;jettySize=auto;html=1;" edge="1" parent="1" source="ghqr43D6T2IHy0TQdt4e-14" target="ghqr43D6T2IHy0TQdt4e-22">
          <mxGeometry relative="1" as="geometry" />
        </mxCell>
        <mxCell id="ghqr43D6T2IHy0TQdt4e-14" value="ABS Components&lt;br&gt;Adapter" style="html=1;outlineConnect=0;whiteSpace=wrap;fillColor=#ffe6cc;shape=mxgraph.archimate3.application;appType=serv;archiType=rounded;fontFamily=Poppins;fontSource=https%3A%2F%2Ffonts.googleapis.com%2Fcss%3Ffamily%3DPoppins;strokeColor=#d79b00;" vertex="1" parent="1">
          <mxGeometry x="830" y="350" width="120" height="60" as="geometry" />
        </mxCell>
        <mxCell id="ghqr43D6T2IHy0TQdt4e-21" style="edgeStyle=orthogonalEdgeStyle;rounded=0;orthogonalLoop=1;jettySize=auto;html=1;" edge="1" parent="1" source="ghqr43D6T2IHy0TQdt4e-15" target="ghqr43D6T2IHy0TQdt4e-24">
          <mxGeometry relative="1" as="geometry" />
        </mxCell>
        <mxCell id="ghqr43D6T2IHy0TQdt4e-15" value="ABS Products&lt;br&gt;Adapter" style="html=1;outlineConnect=0;whiteSpace=wrap;fillColor=#ffe6cc;shape=mxgraph.archimate3.application;appType=serv;archiType=rounded;fontFamily=Poppins;fontSource=https%3A%2F%2Ffonts.googleapis.com%2Fcss%3Ffamily%3DPoppins;strokeColor=#d79b00;" vertex="1" parent="1">
          <mxGeometry x="830" y="650" width="120" height="60" as="geometry" />
        </mxCell>
        <mxCell id="ghqr43D6T2IHy0TQdt4e-22" value="CMC" style="html=1;outlineConnect=0;whiteSpace=wrap;fillColor=light-dark(#99FFFF,#003737);shape=mxgraph.archimate3.application;appType=func;archiType=rounded;" vertex="1" parent="1">
          <mxGeometry x="830" y="470" width="120" height="60" as="geometry" />
        </mxCell>
        <mxCell id="ghqr43D6T2IHy0TQdt4e-24" value="Master Contracts&lt;br&gt;Open Policies" style="html=1;outlineConnect=0;whiteSpace=wrap;fillColor=#99ffff;shape=mxgraph.archimate3.application;appType=func;archiType=rounded;" vertex="1" parent="1">
          <mxGeometry x="830" y="540" width="120" height="60" as="geometry" />
        </mxCell>
        <mxCell id="ghqr43D6T2IHy0TQdt4e-27" style="edgeStyle=orthogonalEdgeStyle;rounded=0;orthogonalLoop=1;jettySize=auto;html=1;" edge="1" parent="1" source="ghqr43D6T2IHy0TQdt4e-25" target="ghqr43D6T2IHy0TQdt4e-26">
          <mxGeometry relative="1" as="geometry" />
        </mxCell>
        <mxCell id="ghqr43D6T2IHy0TQdt4e-25" value="APL" style="html=1;outlineConnect=0;whiteSpace=wrap;fillColor=#99ffff;shape=mxgraph.archimate3.application;appType=comp;archiType=square;fontFamily=Poppins;fontSource=https%3A%2F%2Ffonts.googleapis.com%2Fcss%3Ffamily%3DPoppins;verticalAlign=middle;" vertex="1" parent="1">
          <mxGeometry x="1190" y="540" width="120" height="60" as="geometry" />
        </mxCell>
        <mxCell id="ghqr43D6T2IHy0TQdt4e-28" style="edgeStyle=orthogonalEdgeStyle;rounded=0;orthogonalLoop=1;jettySize=auto;html=1;" edge="1" parent="1" source="ghqr43D6T2IHy0TQdt4e-26" target="ghqr43D6T2IHy0TQdt4e-24">
          <mxGeometry relative="1" as="geometry" />
        </mxCell>
        <mxCell id="ghqr43D6T2IHy0TQdt4e-26" value="GroupBusiness&lt;br&gt;Contracts&lt;br&gt;ASIF" style="html=1;outlineConnect=0;whiteSpace=wrap;fillColor=light-dark(#99FFFF,#003737);shape=mxgraph.archimate3.application;appType=serv;archiType=rounded;fontFamily=Poppins;fontSource=https%3A%2F%2Ffonts.googleapis.com%2Fcss%3Ffamily%3DPoppins;strokeColor=#000000;" vertex="1" parent="1">
          <mxGeometry x="1020" y="540" width="120" height="60" as="geometry" />
        </mxCell>
      </root>
    </mxGraphModel>
  </diagram>
  <diagram name="GOST Integration" id="geiogNWTEh58zCEHQyx3">
    <mxGraphModel dx="1426" dy="905" grid="1" gridSize="10" guides="1" tooltips="1" connect="1" arrows="1" fold="1" page="1" pageScale="1" pageWidth="827" pageHeight="1169" math="0" shadow="0">
      <root>
        <mxCell id="Skwdy0eexYie4p9m-vE--0" />
        <mxCell id="Skwdy0eexYie4p9m-vE--1" parent="Skwdy0eexYie4p9m-vE--0" />
        <mxCell id="NTKLho7I5AZ2gAph6Bzh-7" value="&lt;font style=&quot;color: rgb(255, 255, 255);&quot; face=&quot;Poppins&quot;&gt;GOST UI&lt;/font&gt;" style="html=1;outlineConnect=0;whiteSpace=wrap;fillColor=light-dark(#66B2FF,#66B2FF);shape=mxgraph.archimate3.application;appType=interface;archiType=square;verticalAlign=top;strokeColor=default;" parent="Skwdy0eexYie4p9m-vE--1" vertex="1">
          <mxGeometry x="110" y="180" width="150" height="550" as="geometry" />
        </mxCell>
        <mxCell id="Skwdy0eexYie4p9m-vE--2" value="" style="group" parent="Skwdy0eexYie4p9m-vE--1" vertex="1" connectable="0">
          <mxGeometry x="320" y="330" width="266" height="100" as="geometry" />
        </mxCell>
        <mxCell id="Skwdy0eexYie4p9m-vE--3" value="Components Library" style="html=1;outlineConnect=0;whiteSpace=wrap;fillColor=#99ffff;shape=mxgraph.archimate3.application;appType=comp;archiType=square;fontFamily=Poppins;fontSource=https%3A%2F%2Ffonts.googleapis.com%2Fcss%3Ffamily%3DPoppins;verticalAlign=top;" parent="Skwdy0eexYie4p9m-vE--2" vertex="1">
          <mxGeometry width="266" height="100" as="geometry" />
        </mxCell>
        <mxCell id="Skwdy0eexYie4p9m-vE--4" style="edgeStyle=orthogonalEdgeStyle;rounded=0;orthogonalLoop=1;jettySize=auto;html=1;" parent="Skwdy0eexYie4p9m-vE--2" source="Skwdy0eexYie4p9m-vE--5" target="Skwdy0eexYie4p9m-vE--6" edge="1">
          <mxGeometry relative="1" as="geometry" />
        </mxCell>
        <mxCell id="Skwdy0eexYie4p9m-vE--5" value="Components&lt;div&gt;Service&lt;/div&gt;" style="html=1;outlineConnect=0;whiteSpace=wrap;fillColor=#99ffff;shape=mxgraph.archimate3.application;appType=serv;archiType=rounded;fontFamily=Poppins;fontSource=https%3A%2F%2Ffonts.googleapis.com%2Fcss%3Ffamily%3DPoppins;" parent="Skwdy0eexYie4p9m-vE--2" vertex="1">
          <mxGeometry x="16" y="30" width="120" height="60" as="geometry" />
        </mxCell>
        <mxCell id="Skwdy0eexYie4p9m-vE--6" value="&lt;div style=&quot;line-height: 160%;&quot;&gt;Components&lt;/div&gt;" style="html=1;outlineConnect=0;whiteSpace=wrap;fillColor=#99ffff;shape=mxgraph.archimate3.businessObject;overflow=fill;fontFamily=Poppins;fontSource=https%3A%2F%2Ffonts.googleapis.com%2Fcss%3Ffamily%3DPoppins;fontSize=10;spacingTop=0;verticalAlign=top;spacing=0;spacingLeft=0;" parent="Skwdy0eexYie4p9m-vE--2" vertex="1">
          <mxGeometry x="166" y="40" width="83" height="40" as="geometry" />
        </mxCell>
        <mxCell id="Skwdy0eexYie4p9m-vE--7" value="" style="group" parent="Skwdy0eexYie4p9m-vE--1" vertex="1" connectable="0">
          <mxGeometry x="320" y="480" width="266" height="100" as="geometry" />
        </mxCell>
        <mxCell id="Skwdy0eexYie4p9m-vE--8" value="Building Blocks" style="html=1;outlineConnect=0;whiteSpace=wrap;fillColor=#99ffff;shape=mxgraph.archimate3.application;appType=comp;archiType=square;fontFamily=Poppins;fontSource=https%3A%2F%2Ffonts.googleapis.com%2Fcss%3Ffamily%3DPoppins;verticalAlign=top;" parent="Skwdy0eexYie4p9m-vE--7" vertex="1">
          <mxGeometry width="266" height="100" as="geometry" />
        </mxCell>
        <mxCell id="Skwdy0eexYie4p9m-vE--9" style="edgeStyle=orthogonalEdgeStyle;rounded=0;orthogonalLoop=1;jettySize=auto;html=1;" parent="Skwdy0eexYie4p9m-vE--7" source="Skwdy0eexYie4p9m-vE--10" target="Skwdy0eexYie4p9m-vE--11" edge="1">
          <mxGeometry relative="1" as="geometry" />
        </mxCell>
        <mxCell id="Skwdy0eexYie4p9m-vE--10" value="Building Blocks&lt;br&gt;Service" style="html=1;outlineConnect=0;whiteSpace=wrap;fillColor=#99ffff;shape=mxgraph.archimate3.application;appType=serv;archiType=rounded;fontFamily=Poppins;fontSource=https%3A%2F%2Ffonts.googleapis.com%2Fcss%3Ffamily%3DPoppins;" parent="Skwdy0eexYie4p9m-vE--7" vertex="1">
          <mxGeometry x="16" y="30" width="120" height="60" as="geometry" />
        </mxCell>
        <mxCell id="Skwdy0eexYie4p9m-vE--11" value="&lt;div style=&quot;line-height: 160%;&quot;&gt;Building&lt;br&gt;Blocks&lt;/div&gt;" style="html=1;outlineConnect=0;whiteSpace=wrap;fillColor=#99ffff;shape=mxgraph.archimate3.businessObject;overflow=fill;fontFamily=Poppins;fontSource=https%3A%2F%2Ffonts.googleapis.com%2Fcss%3Ffamily%3DPoppins;fontSize=10;spacingTop=0;verticalAlign=top;spacing=0;spacingLeft=0;" parent="Skwdy0eexYie4p9m-vE--7" vertex="1">
          <mxGeometry x="166" y="40" width="83" height="40" as="geometry" />
        </mxCell>
        <mxCell id="Skwdy0eexYie4p9m-vE--12" value="" style="group" parent="Skwdy0eexYie4p9m-vE--1" vertex="1" connectable="0">
          <mxGeometry x="320" y="630" width="266" height="100" as="geometry" />
        </mxCell>
        <mxCell id="Skwdy0eexYie4p9m-vE--13" value="Product Configurator" style="html=1;outlineConnect=0;whiteSpace=wrap;fillColor=#99ffff;shape=mxgraph.archimate3.application;appType=comp;archiType=square;fontFamily=Poppins;fontSource=https%3A%2F%2Ffonts.googleapis.com%2Fcss%3Ffamily%3DPoppins;verticalAlign=top;" parent="Skwdy0eexYie4p9m-vE--12" vertex="1">
          <mxGeometry width="266" height="100" as="geometry" />
        </mxCell>
        <mxCell id="Skwdy0eexYie4p9m-vE--14" style="edgeStyle=orthogonalEdgeStyle;rounded=0;orthogonalLoop=1;jettySize=auto;html=1;" parent="Skwdy0eexYie4p9m-vE--12" source="Skwdy0eexYie4p9m-vE--15" target="Skwdy0eexYie4p9m-vE--16" edge="1">
          <mxGeometry relative="1" as="geometry" />
        </mxCell>
        <mxCell id="Skwdy0eexYie4p9m-vE--15" value="Product&lt;br&gt;Configurator&lt;br&gt;Service" style="html=1;outlineConnect=0;whiteSpace=wrap;fillColor=#99ffff;shape=mxgraph.archimate3.application;appType=serv;archiType=rounded;fontFamily=Poppins;fontSource=https%3A%2F%2Ffonts.googleapis.com%2Fcss%3Ffamily%3DPoppins;" parent="Skwdy0eexYie4p9m-vE--12" vertex="1">
          <mxGeometry x="16" y="30" width="120" height="60" as="geometry" />
        </mxCell>
        <mxCell id="Skwdy0eexYie4p9m-vE--16" value="&lt;div style=&quot;line-height: 160%;&quot;&gt;&lt;div&gt;Product&lt;/div&gt;&lt;div&gt;Configuration&lt;/div&gt;&lt;/div&gt;" style="html=1;outlineConnect=0;whiteSpace=wrap;fillColor=#99ffff;shape=mxgraph.archimate3.businessObject;overflow=fill;fontFamily=Poppins;fontSource=https%3A%2F%2Ffonts.googleapis.com%2Fcss%3Ffamily%3DPoppins;fontSize=10;spacingTop=0;verticalAlign=top;spacing=0;spacingLeft=0;" parent="Skwdy0eexYie4p9m-vE--12" vertex="1">
          <mxGeometry x="166" y="40" width="83" height="40" as="geometry" />
        </mxCell>
        <mxCell id="Skwdy0eexYie4p9m-vE--17" style="edgeStyle=orthogonalEdgeStyle;rounded=0;orthogonalLoop=1;jettySize=auto;html=1;" parent="Skwdy0eexYie4p9m-vE--1" source="Skwdy0eexYie4p9m-vE--10" target="Skwdy0eexYie4p9m-vE--5" edge="1">
          <mxGeometry relative="1" as="geometry" />
        </mxCell>
        <mxCell id="Skwdy0eexYie4p9m-vE--18" style="edgeStyle=orthogonalEdgeStyle;rounded=0;orthogonalLoop=1;jettySize=auto;html=1;" parent="Skwdy0eexYie4p9m-vE--1" source="Skwdy0eexYie4p9m-vE--15" target="Skwdy0eexYie4p9m-vE--10" edge="1">
          <mxGeometry relative="1" as="geometry" />
        </mxCell>
        <mxCell id="Skwdy0eexYie4p9m-vE--19" style="edgeStyle=orthogonalEdgeStyle;rounded=1;orthogonalLoop=1;jettySize=auto;html=1;curved=0;" parent="Skwdy0eexYie4p9m-vE--1" source="Skwdy0eexYie4p9m-vE--15" target="Skwdy0eexYie4p9m-vE--5" edge="1">
          <mxGeometry relative="1" as="geometry">
            <Array as="points">
              <mxPoint x="396" y="610" />
              <mxPoint x="610" y="610" />
              <mxPoint x="610" y="450" />
              <mxPoint x="396" y="450" />
            </Array>
          </mxGeometry>
        </mxCell>
        <mxCell id="Skwdy0eexYie4p9m-vE--20" style="edgeStyle=orthogonalEdgeStyle;rounded=0;orthogonalLoop=1;jettySize=auto;html=1;" parent="Skwdy0eexYie4p9m-vE--1" source="Skwdy0eexYie4p9m-vE--21" target="Skwdy0eexYie4p9m-vE--5" edge="1">
          <mxGeometry relative="1" as="geometry" />
        </mxCell>
        <mxCell id="Skwdy0eexYie4p9m-vE--21" value="Components Library&lt;br&gt;MicroFE" style="html=1;outlineConnect=0;whiteSpace=wrap;fillColor=#99ffff;shape=mxgraph.archimate3.application;appType=interface;archiType=square;fontFamily=Poppins;fontSource=https%3A%2F%2Ffonts.googleapis.com%2Fcss%3Ffamily%3DPoppins;" parent="Skwdy0eexYie4p9m-vE--1" vertex="1">
          <mxGeometry x="120" y="360" width="130" height="60" as="geometry" />
        </mxCell>
        <mxCell id="Skwdy0eexYie4p9m-vE--22" style="edgeStyle=orthogonalEdgeStyle;rounded=0;orthogonalLoop=1;jettySize=auto;html=1;" parent="Skwdy0eexYie4p9m-vE--1" source="Skwdy0eexYie4p9m-vE--23" target="Skwdy0eexYie4p9m-vE--10" edge="1">
          <mxGeometry relative="1" as="geometry" />
        </mxCell>
        <mxCell id="Skwdy0eexYie4p9m-vE--23" value="Building Blocks&lt;br&gt;MicroFE" style="html=1;outlineConnect=0;whiteSpace=wrap;fillColor=#99ffff;shape=mxgraph.archimate3.application;appType=interface;archiType=square;fontFamily=Poppins;fontSource=https%3A%2F%2Ffonts.googleapis.com%2Fcss%3Ffamily%3DPoppins;" parent="Skwdy0eexYie4p9m-vE--1" vertex="1">
          <mxGeometry x="120" y="510" width="130" height="60" as="geometry" />
        </mxCell>
        <mxCell id="Skwdy0eexYie4p9m-vE--24" style="edgeStyle=orthogonalEdgeStyle;rounded=0;orthogonalLoop=1;jettySize=auto;html=1;" parent="Skwdy0eexYie4p9m-vE--1" source="Skwdy0eexYie4p9m-vE--25" target="Skwdy0eexYie4p9m-vE--15" edge="1">
          <mxGeometry relative="1" as="geometry" />
        </mxCell>
        <mxCell id="Skwdy0eexYie4p9m-vE--25" value="Product&lt;br&gt;Configuration&lt;br&gt;MicroFE" style="html=1;outlineConnect=0;whiteSpace=wrap;fillColor=#99ffff;shape=mxgraph.archimate3.application;appType=interface;archiType=square;fontFamily=Poppins;fontSource=https%3A%2F%2Ffonts.googleapis.com%2Fcss%3Ffamily%3DPoppins;" parent="Skwdy0eexYie4p9m-vE--1" vertex="1">
          <mxGeometry x="120" y="660" width="130" height="60" as="geometry" />
        </mxCell>
        <mxCell id="NTKLho7I5AZ2gAph6Bzh-0" value="" style="group;fillColor=none;fontColor=#FFFFFF;strokeColor=#CCE5FF;" parent="Skwdy0eexYie4p9m-vE--1" vertex="1" connectable="0">
          <mxGeometry x="320" y="180" width="266" height="100" as="geometry" />
        </mxCell>
        <mxCell id="NTKLho7I5AZ2gAph6Bzh-1" value="Product Hub" style="html=1;outlineConnect=0;whiteSpace=wrap;fillColor=#66B2FF;shape=mxgraph.archimate3.application;appType=comp;archiType=square;fontFamily=Poppins;fontSource=https%3A%2F%2Ffonts.googleapis.com%2Fcss%3Ffamily%3DPoppins;verticalAlign=top;fontColor=#FFFFFF;" parent="NTKLho7I5AZ2gAph6Bzh-0" vertex="1">
          <mxGeometry width="266" height="100" as="geometry" />
        </mxCell>
        <mxCell id="NTKLho7I5AZ2gAph6Bzh-2" style="edgeStyle=orthogonalEdgeStyle;rounded=0;orthogonalLoop=1;jettySize=auto;html=1;" parent="NTKLho7I5AZ2gAph6Bzh-0" source="NTKLho7I5AZ2gAph6Bzh-3" target="NTKLho7I5AZ2gAph6Bzh-4" edge="1">
          <mxGeometry relative="1" as="geometry" />
        </mxCell>
        <mxCell id="NTKLho7I5AZ2gAph6Bzh-3" value="Product Hub&lt;br&gt;Service" style="html=1;outlineConnect=0;whiteSpace=wrap;fillColor=#CCE5FF;shape=mxgraph.archimate3.application;appType=serv;archiType=rounded;fontFamily=Poppins;fontSource=https%3A%2F%2Ffonts.googleapis.com%2Fcss%3Ffamily%3DPoppins;" parent="NTKLho7I5AZ2gAph6Bzh-0" vertex="1">
          <mxGeometry x="16" y="30" width="120" height="60" as="geometry" />
        </mxCell>
        <mxCell id="NTKLho7I5AZ2gAph6Bzh-4" value="&lt;div style=&quot;line-height: 160%;&quot;&gt;Product&lt;br&gt;Versions&lt;/div&gt;" style="html=1;outlineConnect=0;whiteSpace=wrap;fillColor=#CCE5FF;shape=mxgraph.archimate3.businessObject;overflow=fill;fontFamily=Poppins;fontSource=https%3A%2F%2Ffonts.googleapis.com%2Fcss%3Ffamily%3DPoppins;fontSize=10;spacingTop=0;verticalAlign=top;spacing=0;spacingLeft=0;" parent="NTKLho7I5AZ2gAph6Bzh-0" vertex="1">
          <mxGeometry x="166" y="40" width="83" height="40" as="geometry" />
        </mxCell>
        <mxCell id="NTKLho7I5AZ2gAph6Bzh-6" style="edgeStyle=orthogonalEdgeStyle;rounded=0;orthogonalLoop=1;jettySize=auto;html=1;" parent="Skwdy0eexYie4p9m-vE--1" source="NTKLho7I5AZ2gAph6Bzh-5" target="NTKLho7I5AZ2gAph6Bzh-3" edge="1">
          <mxGeometry relative="1" as="geometry" />
        </mxCell>
        <mxCell id="NTKLho7I5AZ2gAph6Bzh-5" value="Product Hub&lt;br&gt;MicroFE" style="html=1;outlineConnect=0;whiteSpace=wrap;fillColor=#CCE5FF;shape=mxgraph.archimate3.application;appType=interface;archiType=square;fontFamily=Poppins;fontSource=https%3A%2F%2Ffonts.googleapis.com%2Fcss%3Ffamily%3DPoppins;" parent="Skwdy0eexYie4p9m-vE--1" vertex="1">
          <mxGeometry x="120" y="210" width="130" height="60" as="geometry" />
        </mxCell>
        <mxCell id="NTKLho7I5AZ2gAph6Bzh-8" style="edgeStyle=orthogonalEdgeStyle;rounded=0;orthogonalLoop=1;jettySize=auto;html=1;" parent="Skwdy0eexYie4p9m-vE--1" source="Skwdy0eexYie4p9m-vE--5" target="NTKLho7I5AZ2gAph6Bzh-3" edge="1">
          <mxGeometry relative="1" as="geometry" />
        </mxCell>
        <mxCell id="NTKLho7I5AZ2gAph6Bzh-9" style="edgeStyle=orthogonalEdgeStyle;rounded=1;orthogonalLoop=1;jettySize=auto;html=1;curved=0;" parent="Skwdy0eexYie4p9m-vE--1" source="Skwdy0eexYie4p9m-vE--10" target="NTKLho7I5AZ2gAph6Bzh-3" edge="1">
          <mxGeometry relative="1" as="geometry">
            <Array as="points">
              <mxPoint x="396" y="450" />
              <mxPoint x="610" y="450" />
              <mxPoint x="610" y="300" />
              <mxPoint x="396" y="300" />
            </Array>
          </mxGeometry>
        </mxCell>
        <mxCell id="NTKLho7I5AZ2gAph6Bzh-10" style="edgeStyle=orthogonalEdgeStyle;rounded=1;orthogonalLoop=1;jettySize=auto;html=1;curved=0;" parent="Skwdy0eexYie4p9m-vE--1" source="Skwdy0eexYie4p9m-vE--15" target="NTKLho7I5AZ2gAph6Bzh-3" edge="1">
          <mxGeometry relative="1" as="geometry">
            <Array as="points">
              <mxPoint x="396" y="610" />
              <mxPoint x="610" y="610" />
              <mxPoint x="610" y="300" />
              <mxPoint x="396" y="300" />
            </Array>
          </mxGeometry>
        </mxCell>
      </root>
    </mxGraphModel>
  </diagram>
</mxfile>
